<svg width="652.000000pt" height="366.000000pt" viewBox="0 0 652.000000 366.000000" xmlns="http://www.w3.org/2000/svg">
  <g transform="translate(0.000000,366.000000) scale(0.100000,-0.100000)" fill="#fefefe" stroke="none">
    <path d="M0 1830 l0 -1830 3260 0 3260 0 0 1830 0 1830 -3260 0 -3260 0 0
-1830z m505 882 c45 -27 47 -56 41 -582 -5 -509 -7 -533 -53 -627 -38 -77
-163 -176 -163 -129 0 3 9 42 19 88 l19 83 5 543 4 542 -14 0 c-8 0 -26 -14
-41 -32 -127 -149 -166 -388 -86 -526 56 -96 -55 -69 -134 33 -168 219 177
738 403 607z m1731 13 c81 -25 79 -21 79 -142 l0 -108 105 -6 c58 -4 110 -7
116 -8 20 -2 24 -31 9 -67 l-14 -34 -105 0 -105 0 -9 -17 c-15 -29 -25 -518
-12 -598 24 -153 105 -154 182 -2 l30 60 10 106 c19 213 63 314 172 392 62 46
170 36 220 -20 22 -24 46 -28 46 -6 0 38 83 39 135 1 l19 -14 0 -283 1 -284
20 -40 c32 -63 96 -60 132 8 l17 32 1 150 c3 371 191 594 375 446 43 -34 60
-39 60 -16 0 39 147 32 151 -8 1 -7 1 -130 -1 -274 l-2 -263 14 0 c27 0 141
220 174 336 l17 62 -22 23 c-32 34 -36 79 -13 132 46 103 172 92 172 -15 l0
-38 25 0 c13 0 61 7 105 16 l80 16 25 -16 c43 -28 50 -56 32 -128 -68 -275
-41 -508 59 -508 69 0 99 68 85 195 -21 204 43 406 155 491 65 50 188 44 233
-10 18 -22 43 -20 64 4 18 22 56 19 115 -8 l34 -15 -7 -231 c-10 -334 6 -426
76 -426 35 0 64 29 98 100 l26 55 3 267 3 267 15 11 c17 15 99 -3 127 -27 l17
-16 0 -114 c0 -144 15 -150 55 -22 16 50 42 113 57 140 l28 49 27 0 c106 0
137 -51 143 -235 l5 -150 18 -3 c10 -2 17 3 17 12 0 58 96 326 126 354 32 28
43 28 109 -3 80 -38 76 -23 78 -317 l2 -263 22 -47 22 -48 36 0 35 0 20 32
c10 17 24 54 31 82 15 64 27 81 45 65 30 -25 7 -139 -44 -220 l-29 -46 -44
-12 -44 -12 -44 16 c-113 40 -161 181 -161 477 0 68 -3 88 -14 88 -30 0 -99
-249 -112 -407 -8 -100 -12 -106 -63 -106 -98 0 -149 161 -151 471 0 77 -18
83 -50 15 -58 -122 -90 -273 -90 -421 0 -123 -32 -153 -132 -120 l-43 15 -8
36 c-11 46 -25 47 -55 3 -14 -20 -41 -41 -65 -51 l-41 -16 -41 11 c-48 14 -82
41 -113 93 -29 46 -40 46 -76 -2 -82 -112 -237 -128 -328 -35 -53 54 -44 54
-105 -5 -210 -203 -396 143 -287 537 l7 23 -73 -3 -72 -3 -24 -63 c-34 -91
-111 -237 -166 -315 -26 -37 -48 -72 -48 -77 0 -6 -4 -10 -10 -10 -5 0 -20
-16 -34 -36 l-24 -36 5 -107 c21 -401 -158 -648 -385 -532 -175 89 -149 226
90 463 l148 146 0 31 c0 39 -19 40 -52 3 -92 -103 -262 -98 -326 10 -22 38
-30 36 -78 -20 -86 -99 -206 -84 -269 32 -25 46 -24 46 -87 -17 -115 -115
-249 -109 -333 15 -19 29 -35 58 -35 65 0 7 -9 13 -20 13 -11 0 -20 -4 -20 -9
0 -26 -94 -133 -133 -152 l-43 -21 -41 11 c-81 22 -134 94 -156 212 -14 73
-24 74 -60 5 -105 -201 -324 -282 -509 -188 l-53 27 3 24 c1 14 14 40 28 59
l27 34 27 -6 c15 -3 45 -17 65 -31 168 -113 221 102 64 258 -80 78 -93 77
-149 -21 -217 -376 -349 -469 -428 -302 l-17 35 1 278 1 277 -14 0 c-57 0
-195 -313 -243 -550 -24 -116 -28 -123 -84 -116 -90 11 -93 28 -86 481 l5 320
45 -2 c25 -1 55 -10 70 -21 l25 -19 3 -162 c3 -172 15 -207 41 -118 7 23 22
61 32 84 10 23 19 45 19 48 0 3 18 32 39 63 93 136 158 159 258 91 56 -39 56
-39 48 -298 -13 -406 48 -411 245 -21 33 65 33 73 5 149 l-16 44 16 47 c26 80
94 130 176 130 95 0 101 -89 14 -213 -23 -33 -19 -39 41 -82 138 -97 204 -182
204 -260 0 -44 19 -46 54 -4 73 86 86 144 86 387 l0 202 -62 0 c-35 0 -80 3
-100 6 l-38 7 0 29 c0 16 7 43 16 59 l16 31 87 -7 88 -7 6 117 c7 151 12 158
103 130z" />
    <path d="M2777 2189 c-102 -77 -124 -453 -33 -552 109 -118 240 141 206 407
-18 145 -91 206 -173 145z" />
    <path d="M3530 2172 c-58 -58 -75 -125 -75 -302 l0 -145 24 -48 c36 -75 89
-85 150 -29 74 68 108 281 74 470 -16 91 -108 120 -173 54z" />
    <path d="M4881 2192 c-116 -59 -141 -478 -33 -562 85 -68 180 38 203 227 33
261 -39 403 -170 335z" />
    <path d="M3650 1363 c-154 -171 -197 -319 -103 -362 114 -52 171 48 188 332
l6 97 -15 0 c-8 0 -42 -30 -76 -67z" />
  </g>
  <g transform="translate(0.000000,366.000000) scale(0.100000,-0.100000)" fill="#000000" stroke="none">
    <path d="M348 2723 c-21 -9 -38 -20 -38 -24 0 -5 -4 -9 -10 -9 -17 0 -149
-126 -150 -143 0 -4 -9 -17 -19 -28 -11 -12 -25 -41 -32 -65 -8 -24 -16 -44
-20 -44 -11 0 -34 -115 -33 -168 3 -95 62 -189 142 -224 72 -32 94 -2 50 71
-59 95 -35 347 42 445 54 69 123 132 96 87 -3 -4 -6 -254 -6 -555 -1 -300 -4
-546 -8 -546 -4 0 -13 -24 -19 -52 -6 -29 -14 -63 -18 -75 -5 -16 -2 -23 13
-27 33 -11 132 52 132 83 0 5 5 11 10 13 6 2 23 37 38 78 l27 75 3 533 c3 412
0 537 -9 548 -35 42 -124 54 -191 27z" />
    <path d="M2147 2729 l-17 -10 1 -110 c1 -133 9 -123 -101 -121 l-89 2 -9 -17
c-43 -84 -28 -103 91 -112 l92 -6 -3 -205 c-2 -113 -5 -214 -8 -225 -10 -36
-57 -135 -65 -135 -4 0 -10 -8 -13 -18 -3 -9 -14 -22 -23 -28 l-18 -11 -3 50
c-4 69 -55 167 -87 167 -3 0 -24 18 -47 40 -24 22 -46 40 -49 40 -3 0 -22 13
-41 28 l-35 28 28 39 c82 114 63 229 -35 211 -79 -13 -98 -19 -103 -32 -3 -8
-11 -14 -19 -14 -8 0 -14 -4 -14 -10 0 -5 -11 -26 -25 -46 -33 -48 -34 -122
-4 -163 l21 -28 -42 -84 c-24 -46 -45 -86 -49 -89 -3 -3 -15 -23 -26 -45 -11
-22 -28 -48 -37 -59 -10 -11 -18 -23 -18 -28 0 -4 -14 -21 -31 -38 -65 -61
-78 -3 -67 303 l8 229 -27 29 c-16 16 -35 29 -43 29 -8 0 -24 7 -34 15 -25 19
-83 19 -117 2 -36 -19 -79 -58 -79 -72 0 -7 -9 -20 -19 -29 -18 -17 -68 -123
-109 -236 l-21 -55 0 187 -1 187 -21 11 c-11 7 -44 14 -73 17 l-53 5 -6 -38
c-8 -53 -9 -608 -1 -676 9 -79 21 -91 96 -92 l63 -1 8 50 c29 174 137 486 178
511 5 3 9 11 9 18 0 15 69 92 71 79 2 -17 -2 -222 -7 -330 -14 -364 102 -439
310 -202 26 30 116 176 116 189 0 5 4 10 9 10 5 0 15 16 21 35 6 19 15 35 18
35 4 0 13 14 20 30 19 43 32 38 109 -38 113 -113 128 -227 34 -263 l-25 -10
-73 37 -73 37 -23 -12 c-52 -28 -72 -113 -32 -135 11 -6 22 -14 25 -18 19 -25
234 -38 287 -17 67 27 113 51 113 60 0 5 7 9 15 9 8 0 15 4 15 9 0 5 18 29 40
53 23 23 44 54 47 68 4 14 12 31 20 38 7 7 13 21 14 30 0 14 47 -148 48 -169
2 -17 76 -89 92 -89 11 0 19 -4 19 -10 0 -20 105 -11 131 10 62 53 81 76 108
133 l30 62 7 -42 c3 -24 10 -43 15 -43 5 0 9 -6 9 -14 0 -74 236 -164 258 -98
2 7 15 12 28 12 13 0 24 5 24 10 0 6 4 10 10 10 15 0 60 50 72 79 l10 26 25
-52 c59 -124 236 -139 292 -25 17 33 41 50 41 29 0 -43 110 -107 185 -107 68
0 185 62 185 99 0 6 5 11 10 11 35 0 7 -62 -56 -122 -156 -149 -224 -221 -224
-234 0 -8 -4 -14 -9 -14 -15 0 -41 -90 -41 -142 0 -51 34 -128 56 -128 7 0 14
-7 17 -15 10 -24 111 -48 170 -40 186 26 255 162 256 513 l1 152 16 18 c28 32
84 107 84 114 0 4 11 19 25 34 14 15 25 32 25 39 0 7 7 18 15 25 8 7 15 21 15
31 0 11 3 19 8 19 4 0 16 17 26 38 10 20 25 49 32 64 8 14 14 38 14 52 0 14 4
26 8 26 5 0 16 18 25 40 l15 40 61 0 61 0 0 -32 c0 -18 -7 -55 -15 -82 -41
-135 -11 -362 58 -442 46 -53 177 -85 206 -50 7 9 18 16 24 16 14 0 54 45 62
70 7 23 25 27 25 5 0 -78 233 -141 294 -79 8 8 19 14 23 14 9 0 19 10 75 77
l26 33 7 -29 c30 -136 220 -162 297 -42 l28 45 0 -40 c0 -70 70 -104 163 -80
l25 6 2 82 c2 117 26 297 40 308 3 3 12 25 19 50 16 54 59 147 72 155 5 4 9
-34 9 -92 1 -226 39 -412 91 -438 74 -39 129 -12 124 61 -2 27 5 86 16 131 11
45 19 85 18 90 -1 4 3 21 9 36 7 16 12 42 12 58 0 16 5 29 10 29 6 0 10 8 10
18 0 9 11 38 24 64 l23 48 5 -198 c4 -150 9 -206 22 -236 9 -21 16 -46 16 -55
0 -9 20 -38 44 -63 l44 -46 48 -8 c64 -9 124 11 142 49 7 15 17 27 22 27 12 0
33 67 25 80 -3 5 -2 10 3 10 17 0 24 70 11 102 -14 35 -40 34 -51 -2 -40 -140
-51 -159 -89 -160 -64 -1 -84 86 -84 380 l0 245 -20 23 c-11 12 -26 22 -35 22
-8 0 -24 7 -34 15 -11 8 -39 15 -62 15 l-43 0 -26 -56 c-37 -77 -85 -227 -85
-263 0 -16 -4 -32 -9 -35 -4 -3 -12 -20 -16 -38 l-8 -33 -9 70 c-4 39 -8 117
-8 174 1 107 -13 151 -44 151 -8 0 -16 5 -18 11 -2 6 -27 14 -55 16 l-52 5
-25 -27 c-14 -15 -26 -38 -26 -51 0 -12 -4 -25 -9 -29 -6 -3 -24 -51 -41 -108
-18 -56 -33 -106 -35 -112 -2 -5 -4 58 -4 142 l-1 152 -21 12 c-12 6 -47 13
-79 16 l-57 5 -6 -88 c-3 -49 -6 -172 -7 -273 l-1 -183 -28 -62 c-15 -33 -40
-72 -54 -85 l-26 -24 -29 12 -29 12 -13 72 c-13 74 -17 434 -5 489 20 91 -108
164 -167 96 -11 -13 -22 -18 -26 -13 -45 63 -237 85 -259 29 -3 -8 -10 -14
-15 -14 -17 0 -68 -63 -75 -92 -3 -16 -9 -28 -14 -28 -5 0 -9 -6 -9 -13 0 -8
-6 -27 -14 -43 -29 -58 -50 -334 -26 -334 33 0 -13 -133 -54 -155 l-32 -18
-22 12 c-44 23 -89 185 -72 256 2 6 4 26 5 45 2 19 8 57 14 85 6 27 9 55 7 62
-3 6 0 13 6 15 17 6 22 130 6 152 -20 26 -90 31 -171 12 -89 -21 -87 -21 -87
20 0 73 -40 102 -116 83 -86 -22 -124 -155 -57 -204 l16 -12 -13 -66 c-8 -37
-17 -67 -22 -67 -4 0 -8 -4 -8 -10 0 -16 -61 -142 -90 -185 -15 -22 -30 -49
-34 -59 -15 -41 -18 2 -18 264 l0 271 -27 11 c-68 26 -141 18 -141 -17 l0 -15
-21 18 c-11 9 -30 25 -41 34 -64 54 -268 3 -268 -67 0 -8 -4 -15 -9 -15 -8 0
-31 -52 -71 -160 -8 -22 -15 -96 -16 -197 -4 -172 -10 -200 -56 -243 -46 -42
-83 -10 -104 91 l-16 74 7 241 7 242 -44 17 c-71 27 -113 17 -134 -33 -1 -2
-18 13 -38 32 -158 148 -386 -70 -386 -369 0 -60 -18 -155 -29 -155 -4 0 -13
-16 -20 -35 -7 -20 -21 -41 -32 -48 -10 -6 -19 -17 -19 -23 0 -15 -44 -26 -74
-18 l-24 6 -11 59 c-11 52 -15 419 -6 512 1 15 3 50 4 77 l1 50 94 0 c124 0
142 7 151 61 9 52 0 58 -80 60 -33 0 -82 4 -109 7 l-49 7 2 103 c2 117 0 121
-72 140 -57 14 -76 15 -100 1z m1504 -540 c9 -5 25 -25 35 -46 l19 -38 0 -140
c0 -126 -14 -225 -35 -245 -3 -3 -12 -18 -20 -33 -110 -214 -253 78 -176 361
18 68 23 77 74 128 l33 34 27 -6 c15 -4 34 -10 43 -15z m-771 1 c10 -5 28 -26
40 -47 l23 -38 5 -104 c10 -224 -56 -381 -160 -381 -39 0 -88 83 -88 150 0 17
-3 30 -8 30 -8 0 1 174 13 235 25 128 101 195 175 155z m2105 -2 c14 -6 25
-17 25 -24 0 -7 8 -20 18 -30 l17 -18 4 -124 c5 -180 -22 -277 -94 -348 -48
-47 -105 -29 -138 44 l-22 47 -3 143 -4 143 17 42 c52 133 96 163 180 125z
m-1257 -936 c-13 -6 -9 -42 5 -42 9 0 9 -2 0 -8 -7 -4 -17 -30 -23 -57 -24
-105 -69 -153 -137 -142 -123 20 -83 167 100 369 l52 58 5 -88 c3 -48 2 -88
-2 -90z" />
  </g>
  <g transform="translate(0.000000,366.000000) scale(0.100000,-0.100000)" fill="#090909" stroke="none">
    <path d="M343 2725 c-56 -25 -62 -35 -38 -55 8 -7 12 -17 8 -23 -3 -6 -1 -7 6
-3 9 6 9 11 1 21 -8 10 -6 15 10 20 11 3 18 11 15 16 -6 9 14 13 50 11 l20 -2
-15 10 -15 10 23 0 c12 0 22 5 22 10 0 17 -32 11 -87 -15z" />
    <path d="M2153 2742 c-7 -4 -16 -23 -19 -42 -5 -24 -4 -31 5 -26 6 4 10 15 9
24 -2 12 3 16 16 14 11 -2 15 1 11 7 -3 6 -1 11 4 11 6 0 11 5 11 10 0 12 -20
13 -37 2z" />
    <path d="M465 2725 c11 -9 19 -19 18 -23 -1 -4 1 -9 4 -12 4 -3 3 1 -1 8 -10
18 19 15 34 -3 l13 -15 -19 7 -18 7 14 -16 c11 -11 17 -12 22 -4 12 18 9 36
-6 36 -8 0 -16 4 -18 9 -1 5 -16 12 -33 16 l-30 6 20 -16z" />
    <path d="M2206 2731 c14 -15 64 -25 64 -13 0 10 -32 22 -59 22 -10 0 -11 -3
-5 -9z" />
    <path d="M251 2661 c-10 -18 -6 -31 11 -31 5 0 7 4 3 9 -3 5 4 12 15 16 11 4
18 11 15 16 -10 15 -34 10 -44 -10z" />
    <path d="M348 2653 c10 -4 10 -8 1 -19 -9 -11 -8 -14 4 -14 12 0 17 -12 19
-47 l3 -46 15 18 c8 10 10 16 3 12 -8 -5 -11 4 -8 34 4 43 -11 70 -37 68 l-13
-1 13 -5z" />
    <path d="M193 2602 c-54 -57 -56 -62 -45 -85 l11 -22 0 27 c1 19 5 26 15 22 8
-3 17 0 21 5 3 6 12 8 18 4 7 -4 20 -8 30 -9 29 -2 32 -4 21 -12 -13 -9 -28
-62 -17 -62 8 0 43 64 43 78 0 5 -12 8 -27 8 -14 -1 -28 5 -31 13 -3 9 0 11 9
6 8 -5 6 0 -3 12 -10 11 -18 24 -18 29 1 5 14 -7 30 -26 17 -19 30 -30 30 -24
0 6 -13 23 -29 38 l-30 29 -28 -31z m32 -32 c1 -15 -2 -17 -11 -9 -8 7 -14 7
-19 -1 -3 -5 -11 -10 -17 -10 -6 0 -1 11 12 25 25 27 33 26 35 -5z" />
    <path d="M2120 2540 l0 -50 -46 0 c-30 0 -43 -4 -38 -11 3 -6 19 -9 35 -7 16
3 31 0 33 -6 3 -7 5 -6 5 2 1 6 8 12 17 12 8 0 12 -4 9 -10 -3 -6 1 -7 10 -3
12 4 13 8 4 13 -8 5 -10 21 -6 45 6 38 1 65 -14 65 -5 0 -9 -22 -9 -50z" />
    <path d="M2301 2531 l-13 -9 13 -5 c10 -4 8 -6 -4 -6 l-18 -1 16 -16 c20 -20
27 -14 23 20 -2 19 -7 23 -17 17z" />
    <path d="M123 2500 c3 -11 1 -17 -4 -14 -5 3 -20 -18 -33 -48 -29 -63 -43
-124 -27 -114 5 4 13 22 17 41 3 18 13 36 21 39 11 5 13 2 9 -11 -6 -14 -4
-15 4 -7 9 9 9 17 1 32 -8 14 -7 24 5 38 l15 19 -6 -25 c-5 -19 -4 -21 4 -10
13 18 11 80 -2 80 -5 0 -7 -9 -4 -20z" />
    <path d="M2385 2470 c3 -5 22 -10 41 -10 19 0 34 5 34 10 0 6 -18 10 -41 10
-24 0 -38 -4 -34 -10z" />
    <path d="M1915 2436 c-11 -58 -4 -71 40 -74 44 -4 39 14 -5 20 -14 2 -24 8
-24 13 1 6 4 25 7 43 4 17 2 32 -3 32 -5 0 -12 -15 -15 -34z" />
    <path d="M2493 2451 c-1 -11 5 -25 13 -32 9 -7 14 -8 14 -1 0 6 -6 13 -12 15
-10 4 -10 8 1 16 10 6 21 6 33 0 14 -7 18 -6 18 6 0 24 -65 21 -67 -4z" />
    <path d="M213 2418 c0 -23 17 -44 17 -20 0 4 3 16 6 28 4 14 1 21 -9 21 -8 0
-14 -11 -14 -29z" />
    <path d="M2547 2423 c-4 -3 -7 -14 -7 -24 0 -10 -4 -21 -10 -24 -6 -4 -7 1 -4
12 5 13 2 12 -10 -5 -10 -12 -21 -20 -26 -17 -5 3 -11 1 -15 -5 -10 -17 52
-12 69 6 9 8 16 26 16 40 0 25 -2 28 -13 17z" />
    <path d="M2081 2372 c-19 -6 -12 -22 9 -22 l20 0 0 -56 c0 -37 4 -53 11 -48 6
3 9 24 7 45 -2 22 0 39 5 39 4 0 3 8 -2 19 -6 10 -8 20 -6 23 5 5 -29 5 -44 0z" />
    <path d="M4088 2353 c-10 -2 -18 -9 -18 -14 0 -11 7 -11 47 0 20 6 35 6 39 0
3 -5 10 -6 16 -3 7 4 8 2 4 -4 -4 -6 -21 -9 -39 -7 l-32 5 28 -9 c16 -5 37 -8
49 -6 14 3 18 0 14 -11 -3 -9 -1 -12 4 -9 6 3 10 2 10 -4 0 -5 -6 -12 -12 -14
-10 -4 -10 -6 0 -6 6 -1 12 -5 12 -10 0 -5 -10 -7 -22 -5 -13 2 -17 1 -8 -2 8
-4 21 -13 28 -21 16 -15 58 -17 67 -3 4 6 -7 10 -24 10 l-31 0 0 35 c0 62 -60
97 -132 78z" />
    <path d="M1646 2328 c-69 -25 -120 -104 -114 -178 l3 -43 15 18 c8 10 10 16 3
12 -17 -11 -9 57 11 88 20 31 30 32 21 4 l-7 -22 15 14 c9 9 12 18 6 24 -14
14 -11 35 5 35 8 0 16 7 20 15 3 10 16 14 36 11 22 -2 33 2 41 15 l10 19 -18
-1 c-10 0 -31 -5 -47 -11z" />
    <path d="M2728 2333 c-30 -8 -20 -24 10 -17 34 8 53 24 27 23 -11 -1 -28 -3
-37 -6z" />
    <path d="M2814 2331 c5 -7 -1 -11 -15 -11 -38 0 -13 -12 33 -15 24 -2 46 -4
51 -4 4 -1 7 -7 7 -15 0 -8 5 -18 12 -22 7 -5 9 -2 4 7 -4 8 -1 6 7 -3 17 -21
27 -23 27 -6 0 23 -53 59 -77 53 -15 -3 -22 -1 -21 7 2 6 -5 14 -16 16 -11 2
-16 0 -12 -7z" />
    <path d="M3594 2315 c14 -13 26 -29 26 -35 0 -7 6 -8 18 -1 13 7 23 6 30 -1 7
-7 15 -8 19 -5 4 4 -1 15 -10 25 l-17 17 -22 -14 -21 -13 6 16 c4 10 -1 20
-13 26 -34 18 -43 10 -16 -15z" />
    <path d="M4818 2333 c-10 -2 -18 -9 -18 -13 0 -11 61 -1 75 11 9 9 -26 10 -57
2z" />
    <path d="M1112 2320 c-13 -6 -20 -15 -17 -20 4 -7 11 -8 18 -2 16 13 75 8 89
-6 14 -14 38 -16 38 -2 0 24 -90 45 -128 30z" />
    <path d="M1774 2305 c25 -23 37 -53 16 -40 -7 4 -9 -3 -5 -22 5 -22 4 -25 -5
-13 l-11 15 6 -23 c7 -23 -23 -79 -67 -128 -12 -14 -16 -24 -9 -28 11 -7 71
69 71 91 0 7 4 13 8 13 11 0 32 69 32 103 0 29 -23 57 -47 57 -12 0 -9 -7 11
-25z" />
    <path d="M5710 2311 c-14 -11 -21 -23 -17 -28 5 -4 14 -1 20 7 17 22 66 21 88
-1 10 -10 25 -16 33 -13 8 3 16 1 20 -4 6 -10 -44 -9 -65 2 -8 4 -3 -1 11 -12
16 -13 27 -17 31 -10 4 6 12 7 18 4 17 -11 26 24 10 35 -8 5 -24 7 -36 4 -17
-4 -21 -2 -17 10 4 10 0 15 -12 15 -11 0 -28 2 -39 5 -11 3 -31 -3 -45 -14z" />
    <path d="M700 2284 c0 -41 16 -38 22 6 3 20 0 30 -9 30 -8 0 -13 -13 -13 -36z" />
    <path d="M4980 2299 c17 -14 26 -17 28 -9 5 14 -16 30 -38 30 -10 -1 -7 -7 10
-21z" />
    <path d="M6071 2313 c3 -20 -2 -27 -10 -14 -18 28 -70 -74 -100 -195 -5 -22
-13 -50 -17 -64 l-7 -25 23 23 c12 13 19 30 16 38 -7 18 9 60 30 81 8 9 13 22
10 30 -3 8 -1 24 6 36 7 12 13 28 14 36 4 20 24 39 24 21 0 -9 4 -8 14 5 18
24 45 28 74 9 29 -19 45 -8 18 12 -20 14 -97 20 -95 7z" />
    <path d="M2670 2300 c0 -10 14 -14 39 -10 9 1 12 -4 7 -17 l-7 -18 13 13 13
13 -19 15 c-23 16 -46 18 -46 4z" />
    <path d="M3038 2298 c6 -6 17 -13 24 -14 7 -1 21 -5 31 -9 9 -4 17 -3 17 3 0
6 -14 15 -31 21 -42 15 -56 14 -41 -1z" />
    <path d="M3720 2294 c0 -8 5 -12 11 -8 8 4 9 -4 4 -27 -10 -45 0 -35 13 14
l10 37 -19 0 c-11 0 -19 -7 -19 -16z" />
    <path d="M3794 2290 c0 -11 4 -20 8 -20 4 0 8 5 8 11 0 6 9 8 20 4 11 -3 20
-2 20 3 0 5 -10 12 -22 16 -33 8 -34 8 -34 -14z" />
    <path d="M4754 2298 c-4 -6 -2 -14 4 -16 7 -2 9 -9 5 -15 -3 -7 3 -4 15 7 12
10 19 23 16 27 -8 13 -32 11 -40 -3z" />
    <path d="M5417 2303 c-4 -3 -7 -36 -7 -72 0 -80 17 -71 21 11 3 57 -1 74 -14
61z" />
    <path d="M817 2294 c-3 -3 -3 -13 0 -22 4 -9 2 -13 -4 -9 -7 5 -9 -1 -5 -15
l6 -23 4 18 c3 16 33 26 31 10 -3 -19 2 -33 11 -33 6 0 10 13 10 30 l0 30 -22
-3 c-14 -1 -22 3 -20 11 2 13 -1 15 -11 6z" />
    <path d="M1013 2242 c-37 -41 -47 -78 -13 -47 24 21 26 13 5 -19 l-15 -23 15
0 c8 0 12 4 9 9 -3 5 0 15 6 23 6 8 9 18 6 23 -3 6 1 15 9 22 8 7 12 16 9 21
-3 5 0 9 5 9 6 0 11 5 11 10 0 18 -14 9 -47 -28z" />
    <path d="M2627 2254 c-29 -25 -70 -99 -82 -146 -11 -42 0 -34 25 18 17 34 25
42 32 32 7 -9 8 -5 4 12 -3 14 -1 32 4 40 5 8 10 11 10 7 0 -4 11 3 24 17 26
29 41 34 32 10 -3 -8 -2 -12 4 -9 16 10 11 32 -8 37 -10 3 -30 -5 -45 -18z" />
    <path d="M3409 2279 c-8 -47 -6 -58 12 -56 12 1 15 5 9 11 -13 13 -13 29 -1
21 5 -3 13 0 17 7 4 7 4 10 -1 6 -4 -4 -14 -3 -22 3 -7 6 -13 10 -14 8z" />
    <path d="M3647 2273 c-12 -12 -7 -21 11 -19 10 0 17 -6 16 -15 -1 -11 5 -14
23 -11 16 3 22 9 19 19 -3 8 -6 17 -6 19 0 2 -5 4 -11 4 -6 0 -8 -7 -5 -17 6
-14 2 -12 -17 5 -13 12 -27 19 -30 15z" />
    <path d="M3840 2270 c-17 -5 -19 -8 -8 -9 10 -1 23 -10 30 -21 17 -26 28 -25
28 1 0 15 -4 19 -16 15 -12 -4 -15 -2 -10 9 3 8 4 15 3 14 -1 -1 -13 -5 -27
-9z" />
    <path d="M4723 2265 c-14 -16 -17 -36 -5 -34 4 1 9 0 12 -1 17 -6 48 -5 44 2
-3 5 -13 7 -21 6 -9 -2 -18 3 -20 10 -3 6 0 12 6 12 6 0 11 5 11 10 0 14 -13
12 -27 -5z" />
    <path d="M5015 2258 c-6 -13 -17 -21 -25 -20 -8 2 -12 0 -8 -4 4 -4 3 -13 -4
-21 -9 -11 -7 -12 7 -7 11 5 16 3 12 -2 -3 -6 -1 -16 4 -24 8 -12 12 -12 16
-2 2 6 9 9 15 6 6 -4 5 3 -2 15 -6 12 -15 19 -21 16 -5 -4 -9 -2 -9 3 0 13 26
33 33 26 10 -10 39 5 32 16 -5 8 -11 7 -21 -1 l-14 -12 6 17 c9 25 -10 19 -21
-6z" />
    <path d="M5205 2259 c12 -39 27 -48 23 -15 -2 16 -9 31 -17 34 -10 3 -11 -2
-6 -19z" />
    <path d="M6191 2271 c-12 -8 -9 -11 13 -17 21 -5 25 -9 14 -16 l-13 -10 15 5
c8 2 15 12 15 23 0 21 -23 29 -44 15z" />
    <path d="M1251 2261 c-20 -13 -3 -33 21 -25 13 4 18 2 14 -4 -3 -5 1 -15 9
-22 18 -15 19 -3 5 34 -10 27 -25 32 -49 17z" />
    <path d="M2296 2258 c-4 -10 -5 -25 -2 -34 4 -10 2 -13 -6 -8 -8 5 -9 -1 -4
-22 15 -59 28 -44 24 27 -2 38 -6 49 -12 37z" />
    <path d="M3068 2263 c12 -2 22 -10 22 -17 0 -8 6 -19 14 -25 l14 -12 7 21 c9
28 3 33 -43 36 -20 1 -27 0 -14 -3z" />
    <path d="M4040 2260 c0 -5 -7 -7 -15 -4 -11 5 -15 -1 -15 -21 l0 -27 15 12 15
12 0 -26 c0 -16 -4 -25 -10 -21 -5 3 -10 -1 -10 -9 0 -9 5 -16 10 -16 16 0 29
43 19 62 -5 9 -6 24 -3 32 3 9 3 16 0 16 -3 0 -6 -4 -6 -10z" />
    <path d="M2935 2244 l-19 -14 20 0 19 -1 -17 -13 c-14 -10 -15 -15 -5 -25 10
-10 8 -12 -8 -9 -13 2 -19 10 -17 22 l4 19 -17 -17 -17 -17 12 -14 c16 -20 23
-19 51 6 13 11 18 18 12 14 -16 -8 -17 7 -1 23 7 7 8 12 3 12 -6 0 -4 4 4 9 7
5 9 11 4 14 -4 3 -17 -1 -28 -9z" />
    <path d="M3613 2242 c0 -11 6 -18 13 -15 7 2 15 0 19 -6 4 -8 -5 -9 -29 -6
-23 4 -43 1 -59 -9 -13 -9 -27 -13 -31 -9 -4 5 -6 1 -4 -7 2 -8 -2 -14 -9 -15
-6 0 -15 -4 -20 -9 -4 -5 -3 -6 4 -3 6 4 14 1 16 -5 4 -9 8 -10 14 -2 66 85
173 34 173 -82 0 -13 5 -24 10 -24 17 0 4 102 -14 112 -8 5 -13 15 -10 22 3 8
0 17 -7 22 -8 4 -10 3 -5 -4 5 -8 2 -10 -8 -6 -9 3 -14 9 -11 14 2 4 -6 17
-20 30 l-24 22 2 -20z" />
    <path d="M4410 2241 c5 -11 16 -23 23 -27 9 -5 9 -4 0 7 -18 18 -16 30 2 23 8
-4 15 -1 15 5 0 6 -11 11 -25 11 l-26 0 11 -19z" />
    <path d="M5625 2138 c-40 -118 -51 -141 -66 -132 -5 3 -9 1 -9 -4 0 -10 23
-22 41 -22 5 0 9 10 9 23 0 13 6 32 14 43 l15 19 10 -25 c5 -14 10 -19 10 -11
1 8 -5 22 -13 30 l-14 16 19 60 c10 32 28 68 41 78 13 10 17 16 11 12 -8 -4
-13 0 -13 9 0 42 -20 6 -55 -96z" />
    <path d="M4454 2225 c-3 -8 -4 -20 -1 -27 3 -7 6 -2 7 12 0 19 3 21 9 10 7
-13 7 -34 2 -114 l-1 -18 -16 13 -17 14 9 -25 c4 -14 7 -37 6 -52 0 -16 2 -28
6 -28 12 0 43 166 37 193 -8 30 -33 43 -41 22z" />
    <path d="M2745 2211 c-3 -5 -2 -17 2 -27 4 -12 3 -15 -6 -10 -6 4 -11 4 -10
-1 4 -22 -2 -44 -10 -38 -6 3 -9 -3 -9 -12 0 -10 -3 -26 -7 -35 -4 -11 -3 -18
4 -18 6 0 14 12 17 27 4 15 20 41 36 58 15 16 28 33 28 38 0 4 1 10 3 14 3 10
-41 14 -48 4z" />
    <path d="M4683 2204 c-17 -18 -55 -114 -50 -127 4 -13 37 50 37 70 0 26 25 7
31 -23 l7 -29 1 28 c1 18 5 26 12 21 8 -5 8 -1 0 14 -6 12 -16 24 -22 28 -8 5
-8 9 1 14 7 4 8 10 4 13 -5 3 -15 -1 -21 -9z" />
    <path d="M4823 2197 l-2 -19 14 18 14 19 12 -12 13 -13 -17 0 c-9 0 -17 -7
-17 -15 0 -8 5 -15 10 -15 6 0 13 7 16 15 4 8 12 15 20 15 14 0 20 19 7 21
-53 8 -69 5 -70 -14z" />
    <path d="M3867 2203 c-11 -10 -8 -61 3 -68 6 -4 10 10 10 34 0 42 -2 46 -13
34z" />
    <path d="M5217 2203 c-11 -10 -8 -83 3 -83 6 0 10 20 10 45 0 46 -2 50 -13 38z" />
    <path d="M1118 2189 c-21 -12 -24 -33 -4 -26 10 4 16 -2 19 -16 l3 -22 9 18
c12 28 -6 58 -27 46z" />
    <path d="M3322 2148 c-11 -29 -23 -69 -26 -88 l-7 -35 16 19 c8 11 15 27 15
35 0 26 32 101 41 95 5 -3 6 2 3 10 -11 28 -22 17 -42 -36z" />
    <path d="M195 2158 c4 -18 13 -45 21 -59 7 -15 11 -29 9 -33 -3 -3 0 -2 6 2 7
6 4 27 -8 65 -19 61 -39 78 -28 25z" />
    <path d="M4040 2151 c0 -6 5 -13 11 -16 6 -4 7 -20 3 -38 -3 -18 -3 -29 1 -25
5 4 14 0 22 -10 l14 -17 -10 22 c-14 28 -15 55 -2 34 7 -10 9 -7 8 12 -1 14
-5 23 -8 21 -4 -2 -9 3 -13 11 -6 16 -26 21 -26 6z" />
    <path d="M1068 2136 c-19 -14 -24 -36 -9 -36 12 0 33 28 29 39 -2 6 -10 4 -20
-3z" />
    <path d="M2924 2130 c4 -14 10 -42 13 -62 6 -40 19 -50 25 -20 5 23 -11 73
-30 92 l-15 15 7 -25z" />
    <path d="M3479 2143 c-1 -5 -1 -17 0 -28 l2 -20 -11 15 c-8 12 -9 9 -4 -12 3
-15 2 -33 -2 -40 -10 -16 -14 -58 -6 -58 13 0 44 124 33 128 -6 2 -9 8 -5 13
3 5 3 9 0 9 -3 0 -7 -3 -7 -7z" />
    <path d="M123 2125 c-11 -8 -23 -11 -27 -8 -3 3 -6 -1 -6 -9 0 -30 53 -30 65
0 9 24 -8 33 -32 17z" />
    <path d="M4174 2125 c-4 -8 -11 -12 -16 -9 -6 4 -8 -1 -4 -14 4 -12 1 -26 -9
-35 -16 -17 -21 -57 -6 -57 4 0 17 24 28 53 l20 52 37 3 c49 4 46 22 -4 22
-27 0 -43 -5 -46 -15z" />
    <path d="M4813 2121 c-4 -14 -8 -18 -13 -11 -4 7 -8 -1 -8 -17 0 -15 -4 -45
-8 -65 -4 -25 -2 -38 5 -38 6 0 11 10 11 23 0 13 7 45 16 71 9 26 13 50 10 54
-4 3 -9 -4 -13 -17z" />
    <path d="M5035 2103 c7 -41 12 -50 21 -41 9 9 -7 78 -18 78 -6 0 -8 -14 -3
-37z" />
    <path d="M5720 2117 c-6 -10 -9 -22 -5 -25 3 -4 10 0 15 8 7 11 10 3 10 -27 0
-24 5 -43 10 -43 6 0 10 15 10 33 0 18 5 38 11 44 6 6 8 16 5 21 -10 17 -43
10 -56 -11z" />
    <path d="M1297 2113 c-11 -10 -8 -83 3 -83 6 0 10 20 10 45 0 46 -2 50 -13 38z" />
    <path d="M1552 2108 c-16 -16 -15 -29 7 -57 13 -17 20 -20 26 -11 4 7 2 16 -5
20 -7 4 -9 13 -6 19 4 6 4 11 -1 10 -20 -3 -27 2 -13 11 8 5 12 11 9 14 -3 3
-11 0 -17 -6z" />
    <path d="M5878 2113 c-5 -26 -2 -120 5 -116 4 2 7 -1 7 -6 0 -6 -4 -11 -10
-11 -5 0 -10 -8 -9 -17 0 -11 3 -13 6 -5 2 6 9 10 14 6 5 -3 9 27 9 70 0 60
-15 114 -22 79z" />
    <path d="M6234 2105 c-4 -8 -4 -24 -1 -35 3 -11 2 -18 -1 -16 -11 6 -1 -228 9
-239 5 -5 9 54 9 148 0 149 -3 176 -16 142z" />
    <path d="M3107 2093 c-10 -18 -7 -173 3 -173 6 0 10 34 10 90 0 84 -3 101 -13
83z" />
    <path d="M4297 2063 c-4 -21 -9 -52 -13 -69 -5 -24 -2 -31 10 -31 10 0 14 6
11 16 -2 9 2 37 9 63 8 25 12 49 9 52 -13 13 -21 4 -26 -31z" />
    <path d="M914 2064 c-4 -15 -2 -30 6 -37 10 -9 11 -9 6 0 -8 15 3 45 15 37 5
-3 6 2 3 10 -9 24 -23 19 -30 -10z" />
    <path d="M6052 2078 c-6 -7 -14 -27 -18 -43 -4 -17 -11 -32 -15 -35 -5 -3 -11
-25 -14 -49 -3 -25 -10 -50 -16 -57 -6 -8 -9 -21 -5 -29 3 -8 1 -15 -5 -15 -6
0 -7 -4 -4 -10 10 -17 25 -11 25 9 0 11 16 68 35 127 35 105 38 127 17 102z" />
    <path d="M5667 2066 c-4 -10 -1 -13 8 -10 l14 6 -16 -49 c-9 -26 -22 -56 -30
-65 l-15 -16 18 2 c33 5 66 146 34 146 -4 0 -10 -7 -13 -14z" />
    <path d="M234 2045 c-4 -9 -13 -14 -20 -11 -7 3 -16 1 -19 -5 -4 -5 1 -12 10
-16 10 -3 21 0 25 7 4 7 13 9 19 6 6 -4 11 -1 11 8 0 22 -19 30 -26 11z" />
    <path d="M4020 1998 c-12 -35 -26 -67 -31 -72 -14 -15 -11 -42 7 -57 l16 -13
13 17 c7 10 15 14 18 10 9 -14 3 -39 -12 -57 -8 -9 -11 -19 -8 -22 9 -9 27 5
27 22 0 8 4 14 9 14 11 0 36 59 28 67 -4 3 -9 -2 -13 -11 -9 -23 -24 -20 -24
7 l-1 22 -10 -18 c-6 -9 -14 -15 -20 -12 -5 3 -6 -1 -3 -9 3 -9 2 -16 -4 -16
-16 0 -19 23 -6 49 l12 23 5 -18 c4 -14 6 -12 5 6 -1 47 2 60 13 60 5 0 7 -6
3 -12 -4 -7 -3 -9 1 -5 11 9 14 87 4 87 -3 0 -16 -28 -29 -62z" />
    <path d="M1720 2037 c0 -5 9 -7 20 -4 15 4 20 0 20 -14 0 -10 6 -19 14 -19 15
0 30 29 21 39 -10 9 -75 8 -75 -2z" />
    <path d="M885 1987 c-8 -20 -15 -41 -15 -47 0 -5 -5 -9 -11 -7 -21 4 -20 -22
1 -33 11 -6 20 -7 19 -3 -1 4 0 17 1 28 l2 20 8 -25 8 -25 -1 43 c0 28 5 47
14 52 11 7 11 12 2 21 -10 10 -16 5 -28 -24z" />
    <path d="M5930 1998 c0 -7 -3 -24 -7 -38 l-6 -25 15 12 c8 7 18 10 21 6 9 -8
9 5 1 35 -7 23 -24 31 -24 10z" />
    <path d="M1540 1983 c0 -9 3 -13 7 -10 4 4 20 -5 36 -20 l28 -28 15 19 c20 27
18 39 -6 33 -12 -3 -24 1 -31 11 l-11 17 6 -17 c7 -22 -10 -24 -18 -3 -7 20
-26 19 -26 -2z" />
    <path d="M1810 1989 l-15 -11 17 6 c11 3 28 -5 44 -21 l27 -26 -17 -13 c-11
-8 -13 -14 -7 -19 6 -3 11 -1 11 6 0 9 4 9 15 -1 8 -6 19 -9 25 -5 13 8 13 35
-1 35 -6 0 -9 -7 -5 -15 3 -8 2 -15 -3 -15 -16 0 -20 14 -9 28 l12 14 -19 14
c-11 7 -25 18 -32 24 -15 13 -24 12 -43 -1z" />
    <path d="M964 1979 c-4 -8 -3 -9 4 -5 16 10 15 0 -2 -32 -8 -15 -17 -40 -21
-55 -3 -17 -10 -25 -17 -21 -8 5 -9 1 -5 -11 5 -11 1 -22 -8 -29 l-16 -12 18
-1 c18 -1 73 117 73 155 0 16 -18 24 -26 11z" />
    <path d="M2682 1971 c-10 -16 -11 -26 -3 -34 15 -15 23 -3 19 30 l-3 28 -13
-24z" />
    <path d="M4433 1936 c-1 -28 -2 -53 -4 -56 -1 -3 -2 -38 -3 -77 0 -40 1 -68 2
-63 2 6 8 8 13 4 5 -3 9 38 9 98 0 57 3 112 6 124 4 14 1 21 -8 21 -10 0 -15
-15 -15 -51z" />
    <path d="M1653 1968 c2 -7 13 -13 25 -12 12 0 19 -3 16 -8 -3 -5 11 -23 31
-41 20 -17 43 -47 52 -64 8 -18 19 -33 24 -33 5 0 9 -9 9 -19 0 -22 16 -36 24
-22 4 5 1 13 -4 16 -8 5 -6 13 5 24 l15 18 -20 26 c-23 29 -27 45 -6 28 10 -9
15 -8 19 2 5 14 -30 16 -51 3 -13 -8 -34 18 -24 30 4 4 0 3 -8 -3 -11 -8 -18
-8 -27 2 -7 8 -9 15 -5 18 4 2 1 2 -5 1 -7 -2 -13 0 -13 4 0 5 6 14 13 21 10
11 10 13 0 7 -7 -4 -19 -4 -25 1 -23 13 -50 14 -45 1z m182 -149 c-11 -16 -25
-10 -25 11 0 11 -4 20 -10 20 -5 0 -10 8 -10 18 1 13 6 11 25 -11 14 -16 23
-33 20 -38z" />
    <path d="M1120 1879 c0 -50 4 -78 10 -74 12 8 11 155 -1 155 -5 0 -9 -36 -9
-81z" />
    <path d="M1501 1914 c-14 -26 -21 -48 -15 -52 5 -4 18 -18 29 -31 l20 -24 -20
7 c-15 5 -17 4 -8 -5 6 -6 9 -18 6 -25 -3 -8 0 -14 5 -14 22 0 23 40 3 66 -23
29 -28 49 -9 38 6 -4 8 -3 4 4 -8 13 14 63 25 56 5 -3 6 2 3 10 -10 25 -17 19
-43 -30z" />
    <path d="M3442 1931 c-10 -16 -11 -26 -3 -34 15 -15 23 -3 19 30 l-3 28 -13
-24z" />
    <path d="M2096 1918 c-9 -34 -7 -50 4 -43 6 3 10 15 10 26 0 10 5 19 11 19 5
0 7 5 4 10 -10 17 -22 11 -29 -12z" />
    <path d="M1580 1915 c0 -10 -5 -13 -12 -9 -7 4 -8 3 -4 -4 4 -6 -2 -17 -12
-23 -20 -12 -19 -49 0 -49 6 0 7 8 4 17 -4 10 -4 14 0 11 7 -8 44 34 44 50 0
6 -4 14 -10 17 -5 3 -10 -1 -10 -10z" />
    <path d="M2510 1889 c0 -23 -5 -59 -12 -81 l-11 -39 16 -16 16 -16 -6 21 c-3
13 2 33 12 48 9 15 13 24 8 21 -6 -4 -8 16 -5 48 3 37 1 55 -7 55 -6 0 -11
-17 -11 -41z" />
    <path d="M5207 1923 c-11 -10 -8 -71 3 -78 6 -4 10 12 10 39 0 47 -2 51 -13
39z" />
    <path d="M5887 1924 c-9 -10 13 -46 25 -42 20 7 20 48 0 48 -10 0 -22 -3 -25
-6z" />
    <path d="M1930 1905 c0 -3 7 -17 16 -30 9 -14 13 -25 9 -25 -4 0 -3 -6 2 -12
14 -18 14 -58 0 -58 -6 0 -3 -6 7 -13 l18 -13 -16 -16 c-20 -21 -21 -32 -1
-24 10 3 15 -1 15 -11 0 -9 3 -13 7 -10 17 18 -8 187 -29 187 -4 0 -8 7 -8 15
0 8 -4 15 -10 15 -5 0 -10 -2 -10 -5z" />
    <path d="M3097 1903 c-2 -5 -1 -42 3 -83 4 -48 2 -78 -4 -82 -8 -5 -7 -8 0 -8
7 0 14 -10 17 -22 11 -39 13 -15 9 95 -3 94 -11 125 -25 100z" />
    <path d="M3270 1870 c0 -16 5 -30 10 -30 6 0 10 14 10 30 0 17 -4 30 -10 30
-5 0 -10 -13 -10 -30z" />
    <path d="M3700 1862 c0 -16 -7 -51 -15 -78 -17 -58 -19 -74 -5 -74 6 0 10 12
10 28 0 18 3 23 9 14 6 -9 8 -5 9 15 0 15 3 49 7 76 5 32 4 47 -4 47 -6 0 -11
-13 -11 -28z" />
    <path d="M2940 1866 c0 -7 -3 -27 -6 -43 -4 -21 -2 -30 8 -30 8 0 14 15 15 44
1 24 -2 43 -7 43 -6 0 -10 -6 -10 -14z" />
    <path d="M4270 1840 c0 -22 5 -40 10 -40 6 0 10 18 10 40 0 22 -4 40 -10 40
-5 0 -10 -18 -10 -40z" />
    <path d="M3937 1825 c-15 -25 -27 -48 -27 -51 0 -3 -7 -12 -15 -20 l-15 -15 0
61 c0 41 -3 59 -11 54 -6 -3 -9 -15 -6 -25 3 -11 1 -17 -4 -13 -11 6 -12 -9
-2 -20 4 -4 8 -22 8 -41 2 -43 10 -52 30 -35 11 9 15 9 15 1 0 -6 -6 -14 -14
-17 -8 -3 -22 -18 -31 -32 l-16 -27 20 23 c22 25 37 28 44 10 3 -7 3 7 2 31
-4 44 14 88 30 73 5 -4 5 -2 2 4 -3 5 3 23 14 40 20 31 24 44 11 44 -4 0 -19
-20 -35 -45z" />
    <path d="M2056 1824 c-9 -20 -14 -39 -10 -43 4 -3 9 0 11 7 3 6 9 10 14 7 5
-4 6 2 2 12 l-6 18 19 -19 c14 -13 15 -20 6 -23 -6 -3 -9 -10 -6 -15 4 -7 2
-8 -4 -4 -12 7 -16 -4 -13 -34 l2 -15 -10 15 c-7 9 -11 10 -11 3 0 -37 34 -20
54 27 8 19 18 34 23 33 4 -2 8 3 8 10 0 6 -11 12 -25 12 -20 0 -25 5 -23 23 4
33 -11 27 -31 -14z" />
    <path d="M1457 1843 c-14 -13 -7 -31 11 -29 9 2 16 6 15 9 -2 4 -3 12 -3 17 0
11 -13 13 -23 3z" />
    <path d="M3987 1844 c-4 -4 -4 -18 0 -32 3 -15 1 -28 -8 -34 -11 -8 -10 -8 4
-4 12 4 17 2 14 -6 -2 -7 -12 -12 -21 -12 -9 1 -16 -2 -16 -8 0 -5 -4 -7 -8
-4 -5 3 -9 -1 -9 -9 0 -11 4 -12 14 -4 17 15 16 -1 -1 -24 -8 -10 -16 -14 -18
-10 -3 4 -3 3 -2 -4 4 -18 -26 -40 -35 -25 -5 8 -16 -3 -31 -29 -12 -23 -17
-38 -10 -34 10 6 12 4 7 -8 -3 -9 -2 -19 2 -22 5 -3 12 3 15 12 4 9 1 20 -6
24 -10 6 -10 11 -2 19 9 9 14 9 19 0 7 -12 45 15 45 32 0 5 14 23 30 40 17 16
30 36 30 44 0 8 5 14 10 14 6 0 10 7 10 16 0 8 -4 12 -10 9 -14 -9 -12 28 3
45 9 11 8 11 -7 0 l-20 -15 7 18 c7 18 5 21 -6 11z" />
    <path d="M5760 1806 c0 -20 5 -36 10 -36 12 0 10 59 -2 66 -4 3 -8 -11 -8 -30z" />
    <path d="M2677 1823 c-12 -11 -8 -31 8 -37 11 -4 15 1 15 19 0 24 -10 32 -23
18z" />
    <path d="M6094 1777 c8 -71 27 -147 38 -147 11 0 10 28 -3 52 -6 11 -13 45
-15 76 -3 32 -10 62 -16 67 -7 7 -9 -7 -4 -48z" />
    <path d="M1287 1813 c-9 -14 -3 -85 8 -104 4 -6 1 -15 -6 -20 -11 -6 -11 -11
-1 -21 22 -22 28 5 17 82 -6 43 -14 70 -18 63z" />
    <path d="M5390 1748 c-13 -40 -28 -76 -34 -80 -6 -4 -6 -14 2 -30 6 -13 11
-16 11 -8 -2 30 1 41 11 35 5 -3 6 -13 3 -23 -3 -9 -2 -14 2 -9 5 4 10 27 11
52 2 25 7 52 12 61 l9 17 7 -28 c4 -15 9 -25 12 -23 2 3 -1 19 -7 37 -9 25 -9
35 0 40 9 6 8 11 -2 20 l-14 11 -23 -72z" />
    <path d="M4630 1799 c0 -5 -5 -7 -11 -3 -8 5 -9 -5 -4 -33 18 -107 -80 -186
-130 -106 -25 40 -32 41 -32 3 0 -17 3 -26 7 -20 5 8 9 6 13 -5 9 -21 80 -51
85 -36 2 6 8 11 13 11 6 0 7 -4 4 -10 -3 -6 1 -7 10 -3 12 4 13 8 5 13 -17 10
4 22 24 14 9 -3 16 -1 16 6 0 6 -4 8 -10 5 -5 -3 -10 -1 -10 4 0 6 4 11 9 11
5 0 7 10 3 22 -3 12 -1 19 4 15 6 -3 11 21 12 59 2 35 0 64 -3 64 -3 0 -5 -5
-5 -11z" />
    <path d="M5975 1802 c-12 -8 -18 -52 -19 -137 -1 -47 -5 -64 -21 -78 l-20 -18
20 3 c24 4 31 26 43 143 11 98 11 97 -3 87z" />
    <path d="M6410 1768 c-30 -116 -55 -154 -93 -142 -12 3 -22 7 -23 8 -9 12 -34
92 -34 106 0 11 -5 20 -11 20 -14 0 -4 -62 16 -102 9 -20 10 -30 1 -39 l-11
-13 16 12 16 12 13 -15 13 -15 -16 5 c-8 4 -18 1 -23 -6 -4 -7 -3 -10 4 -5 17
10 65 -15 50 -27 -9 -6 -8 -7 4 -3 20 6 35 -10 16 -17 -7 -2 -2 -3 12 -1 l25
3 -32 -14 c-38 -18 -44 -30 -9 -21 38 9 89 63 81 84 -5 11 -9 13 -12 5 -3 -7
-9 -13 -15 -13 -6 0 -8 6 -5 14 6 16 -8 15 -41 -3 -13 -7 -26 -10 -29 -8 -2 3
11 13 31 22 20 10 36 25 37 34 0 13 2 12 10 -4 l9 -20 -4 22 c-2 12 0 40 6 62
l10 39 21 -5 22 -5 -15 12 -15 12 23 -5 23 -5 -3 26 c-2 21 -9 28 -30 30 l-27
3 -11 -43z m-20 -183 c9 -10 10 -19 4 -25 -13 -13 -49 13 -40 28 10 16 21 15
36 -3z" />
    <path d="M891 1788 c-1 -10 4 -18 10 -18 5 0 7 -5 3 -12 -11 -18 -14 -58 -5
-58 5 0 11 12 15 28 3 15 9 38 12 52 l7 25 -15 -13 -16 -13 -5 13 c-4 8 -6 7
-6 -4z" />
    <path d="M1418 1775 l-12 -26 19 -17 c13 -11 15 -12 8 -2 -8 10 -9 21 -2 30
l9 15 11 -15 11 -15 -6 18 c-3 10 -6 23 -6 28 0 19 -21 8 -32 -16z" />
    <path d="M1489 1784 c8 -16 5 -29 -14 -60 -14 -21 -25 -33 -25 -25 0 8 -8 4
-20 -10 -18 -22 -30 -15 -12 7 4 5 0 1 -10 -8 -9 -10 -19 -18 -22 -18 -12 0
-6 28 7 33 6 2 9 8 5 12 -9 10 -41 -22 -34 -34 3 -5 -3 -7 -14 -4 -11 3 -20 0
-20 -6 0 -6 10 -10 23 -7 13 2 30 0 38 -4 8 -6 19 -4 29 5 8 7 17 14 20 14 15
0 40 14 40 23 0 5 7 16 15 24 19 20 19 35 -1 60 l-15 19 10 -21z" />
    <path d="M5026 1774 c-4 -14 -4 -29 -1 -32 3 -3 8 4 12 16 3 12 10 19 15 15 6
-3 9 0 6 7 -8 25 -26 21 -32 -6z" />
    <path d="M5612 1783 c-5 -10 -10 -61 -11 -113 -1 -60 -6 -97 -14 -102 -7 -4
-7 -8 -2 -8 15 0 -18 -20 -34 -20 -11 0 -9 4 5 16 l19 15 -22 -11 c-37 -18
-27 -31 20 -27 l42 4 2 54 c1 30 4 89 7 132 4 80 3 89 -12 60z" />
    <path d="M2011 1767 c-18 -18 -13 -36 9 -30 11 3 17 9 14 14 -3 5 1 6 9 3 8
-3 17 1 19 8 7 16 -36 20 -51 5z" />
    <path d="M2140 1769 c0 -5 -4 -7 -10 -4 -12 8 -12 2 1 -55 13 -58 39 -111 50
-104 5 3 6 -2 3 -11 -6 -16 21 -55 38 -55 5 0 16 -7 24 -15 20 -19 119 -22
107 -2 -16 25 -12 38 10 33 12 -3 16 -3 8 0 l-13 6 13 10 c10 6 7 7 -10 3 -15
-5 -21 -3 -17 3 3 6 2 13 -3 17 -6 3 -8 -4 -6 -15 3 -15 -3 -24 -21 -30 -32
-13 -77 -13 -69 -1 3 5 1 12 -5 16 -6 4 -8 10 -6 14 3 4 -1 8 -9 8 l-15 0 17
-21 18 -21 -23 19 c-12 11 -20 21 -17 24 8 8 -16 43 -25 37 -6 -3 -7 1 -4 9 3
9 2 16 -4 16 -13 0 -34 94 -26 115 3 8 3 15 0 15 -3 0 -6 -5 -6 -11z" />
    <path d="M2920 1765 c0 -9 -7 -30 -16 -46 -26 -51 -9 -56 19 -5 25 46 27 66 6
66 -5 0 -9 -7 -9 -15z" />
    <path d="M3280 1750 l0 -34 17 17 17 17 -17 17 -17 17 0 -34z" />
    <path d="M5210 1780 c-7 -24 -4 -52 7 -61 10 -9 13 -7 12 7 0 19 -16 63 -19
54z" />
    <path d="M4280 1748 c0 -34 11 -68 22 -68 5 0 6 10 2 23 -4 12 -7 30 -6 39 0
10 -3 20 -9 23 -5 4 -9 -4 -9 -17z" />
    <path d="M3451 1743 c0 -10 4 -27 8 -38 5 -11 4 -31 0 -45 l-9 -25 15 19 15
20 0 -17 c0 -9 5 -17 11 -17 5 0 7 -5 3 -12 -5 -7 -3 -8 6 -3 10 6 12 4 7 -8
-12 -33 62 -23 118 16 l30 21 -19 -23 -20 -22 17 7 c16 6 21 16 18 41 -1 6 3
14 9 18 13 8 13 25 0 25 -5 0 -10 -4 -10 -10 0 -14 -46 -57 -69 -65 -51 -16
-111 47 -111 116 0 11 -4 19 -10 19 -5 0 -10 -8 -9 -17z" />
    <path d="M2450 1711 c-13 -22 -34 -45 -47 -52 -26 -14 -32 -34 -7 -25 9 3 20
6 25 6 5 0 9 7 9 15 0 18 5 18 33 4 12 -7 19 -8 15 -4 -4 4 -3 17 3 28 9 15 8
18 -2 12 -9 -6 -10 -3 -6 8 4 10 10 24 13 32 12 30 -12 14 -36 -24z" />
    <path d="M2680 1725 c-7 -14 -10 -28 -7 -32 4 -3 7 1 7 10 0 10 5 17 10 17 9
0 14 -17 13 -47 -1 -7 3 -10 8 -7 5 3 9 -2 9 -10 0 -9 5 -16 11 -16 6 0 9 8 6
18 -34 103 -36 106 -57 67z" />
    <path d="M2946 1705 c1 -20 -4 -39 -12 -46 -7 -6 -11 -15 -8 -21 3 -5 -2 -20
-11 -34 -22 -34 -9 -46 16 -14 10 14 24 31 31 39 l11 14 14 -18 c16 -23 28
-13 15 12 -5 10 -8 28 -7 41 l2 22 -24 -22 c-12 -12 -23 -28 -23 -35 0 -8 -5
-11 -10 -8 -8 5 -7 12 2 22 14 17 20 71 8 78 -4 2 -6 -11 -4 -30z" />
    <path d="M2500 1717 c0 -11 9 -21 20 -24 11 -3 20 -10 20 -15 0 -16 32 -78 39
-78 4 0 8 13 8 29 0 21 -4 28 -14 24 -8 -3 -13 -2 -12 3 6 21 -14 74 -27 74
-8 0 -14 -6 -14 -12 0 -9 -4 -8 -10 2 l-10 15 0 -18z" />
    <path d="M5010 1714 c0 -8 4 -13 9 -10 5 4 8 -9 7 -29 -2 -19 1 -32 6 -29 5 3
6 14 3 25 -4 11 -2 19 4 19 8 0 7 7 -1 20 -15 24 -28 26 -28 4z" />
    <path d="M6443 1683 c0 -43 17 -82 17 -40 0 6 3 23 7 36 4 16 3 22 -5 17 -6
-3 -12 3 -15 16 -3 13 -4 -1 -4 -29z" />
    <path d="M360 1627 c0 -51 -8 -114 -20 -162 -26 -102 -26 -105 10 -105 17 0
30 4 30 9 0 5 10 11 22 15 17 4 20 8 11 17 -8 8 -16 6 -32 -10 -11 -11 -27
-18 -36 -15 -19 8 -19 9 1 29 l17 16 9 -13 c8 -10 9 -10 5 2 -2 8 -10 14 -17
12 -15 -3 -3 59 14 70 7 5 6 8 -4 8 -10 0 -11 3 -3 8 14 9 17 202 3 202 -6 0
-10 -35 -10 -83z" />
    <path d="M2297 1690 c-3 -11 -1 -18 4 -14 5 3 9 -4 9 -15 0 -12 7 -21 15 -21
8 0 15 -4 15 -10 0 -5 18 -18 40 -28 22 -10 37 -22 33 -27 -5 -4 -1 -5 7 -1 8
4 4 -2 -9 -13 -13 -12 -21 -24 -18 -27 10 -11 47 17 62 46 9 17 20 30 25 30 6
0 10 6 10 14 0 8 5 16 12 18 6 2 9 10 6 18 -3 10 -11 4 -23 -17 -10 -18 -23
-29 -28 -26 -6 3 -7 1 -4 -4 4 -6 1 -13 -7 -16 -18 -7 -56 3 -56 14 0 5 -7 9
-16 9 -8 0 -12 5 -9 10 3 6 -1 10 -9 10 -8 0 -20 16 -27 35 -15 40 -24 44 -32
15z" />
    <path d="M3270 1690 c0 -11 -4 -20 -10 -20 -5 0 -10 -6 -10 -14 0 -8 -6 -16
-12 -19 -7 -2 -9 -8 -5 -13 5 -5 13 -1 18 9 6 9 14 15 20 12 5 -4 6 2 2 11 -3
10 -2 15 3 12 5 -4 10 5 10 18 1 13 -2 24 -7 24 -5 0 -9 -9 -9 -20z" />
    <path d="M531 1676 c-6 -16 -14 -32 -16 -36 -2 -4 3 -7 11 -7 15 0 29 38 21
59 -3 8 -9 1 -16 -16z" />
    <path d="M1555 1690 c-4 -6 -2 -16 3 -23 5 -7 12 -21 15 -32 3 -11 5 -5 4 14
-1 22 3 36 12 39 9 3 12 0 9 -9 -4 -10 4 -15 28 -16 19 -1 34 3 34 9 0 6 -11
8 -24 6 -17 -4 -23 -1 -19 9 6 16 -52 19 -62 3z" />
    <path d="M2037 1680 c-9 -14 -17 -19 -17 -12 0 6 -5 12 -12 12 -9 0 -9 -3 -1
-11 16 -16 -17 -50 -34 -36 -9 7 -13 5 -13 -6 0 -8 7 -18 16 -21 19 -7 44 10
44 29 0 7 10 19 21 27 12 8 20 20 17 28 -3 10 -9 7 -21 -10z" />
    <path d="M5780 1686 c0 -24 22 -76 32 -76 9 0 6 17 -13 68 -9 25 -19 29 -19 8z" />
    <path d="M880 1666 c-12 -33 -13 -56 -1 -56 9 0 24 71 16 78 -2 3 -9 -7 -15
-22z" />
    <path d="M4315 1659 c-8 -34 -6 -38 23 -44 16 -3 19 0 15 13 l-7 17 16 -13
c16 -13 38 1 24 16 -16 15 -46 8 -46 -12 l0 -21 -10 15 c-5 8 -7 25 -3 37 3
13 3 23 0 23 -3 0 -8 -14 -12 -31z" />
    <path d="M3125 1658 c3 -13 7 -33 8 -45 0 -12 5 -19 9 -17 4 3 8 1 8 -3 0 -5
10 -9 23 -10 12 0 16 1 9 4 -6 3 -10 8 -8 12 7 11 -12 36 -21 28 -4 -5 -1 -13
7 -18 l15 -11 -15 5 c-8 2 -15 12 -16 23 -2 46 -5 54 -14 54 -6 0 -8 -10 -5
-22z" />
    <path d="M4996 1666 c5 -13 4 -17 -4 -12 -8 5 -10 1 -5 -10 5 -13 3 -16 -10
-11 -11 4 -14 2 -10 -9 4 -10 9 -12 18 -4 6 5 14 8 16 5 3 -2 5 6 4 20 0 13
-4 27 -8 31 -4 5 -5 0 -1 -10z" />
    <path d="M5074 1668 c3 -7 9 -21 12 -30 8 -22 20 -23 27 -4 3 8 -2 21 -12 30
-21 19 -35 21 -27 4z" />
    <path d="M1408 1635 c-6 -13 -16 -22 -22 -18 -6 3 -8 3 -4 -1 4 -5 -5 -19 -19
-32 -14 -13 -23 -27 -20 -30 7 -8 97 82 97 96 0 19 -21 10 -32 -15z" />
    <path d="M3306 1646 c3 -9 1 -16 -5 -16 -6 0 -11 -7 -11 -15 0 -19 5 -19 37 2
l27 18 -6 -15 c-8 -22 9 -60 27 -60 21 0 19 9 -7 31 -15 12 -18 18 -9 19 11 0
10 5 -4 20 -10 11 -20 18 -23 15 -3 -3 -11 0 -19 7 -11 8 -12 7 -7 -6z" />
    <path d="M3700 1647 c-19 -15 -14 -51 6 -43 10 4 14 -3 14 -24 0 -20 7 -33 23
-41 l22 -12 -14 17 -14 16 19 23 19 22 -22 -19 -23 -19 4 30 c1 17 6 35 10 42
5 8 0 8 -20 1 l-27 -11 13 16 c15 18 11 19 -10 2z" />
    <path d="M4665 1647 c-37 -22 -49 -53 -16 -42 12 3 21 0 25 -10 8 -22 25 -19
23 4 0 11 -5 17 -11 14 -5 -3 -7 5 -4 21 3 14 5 26 4 25 0 0 -10 -6 -21 -12z" />
    <path d="M5401 1632 c-8 -18 -18 -35 -24 -39 -5 -3 -7 -2 -4 3 3 5 -2 10 -11
11 -49 6 -89 17 -105 31 -13 12 -20 13 -29 4 -8 -8 -7 -13 5 -17 9 -4 13 -13
11 -20 -3 -7 0 -16 6 -20 6 -3 9 -1 8 6 -2 7 10 11 35 11 56 -1 57 -1 51 -19
l-6 -18 11 15 c5 8 13 11 17 7 9 -9 -16 -38 -27 -31 -5 3 -9 2 -8 -3 4 -20 -2
-24 -18 -12 -10 7 -15 9 -11 5 4 -5 0 -15 -10 -22 -9 -7 -12 -14 -6 -14 20 0
84 30 84 40 0 12 37 50 49 50 9 0 21 24 21 41 0 6 -4 8 -9 5 -5 -4 -11 -1 -13
6 -2 6 -10 -3 -17 -20z" />
    <path d="M1686 1638 c3 -4 12 -8 20 -8 8 0 14 -4 14 -10 0 -5 18 -3 40 5 23 8
38 10 35 5 -3 -6 -1 -10 5 -10 7 0 10 5 8 12 -3 8 -27 13 -65 13 -34 0 -59 -3
-57 -7z" />
    <path d="M2850 1641 c0 -15 -57 -23 -80 -11 -11 6 -25 8 -32 4 -6 -4 2 -14 23
-25 26 -13 37 -15 48 -6 11 9 13 9 8 0 -4 -6 -2 -15 4 -19 8 -4 9 -3 5 4 -4 7
-3 12 3 12 5 0 12 -4 16 -10 3 -5 13 -6 22 -3 13 5 15 2 10 -11 -4 -10 -7 -20
-7 -22 0 -2 -11 -4 -25 -4 -14 0 -25 -4 -25 -9 0 -5 -10 -11 -22 -14 -12 -4
-19 -9 -16 -12 8 -8 88 16 88 27 0 4 7 8 16 8 11 0 14 5 9 18 -4 9 -8 22 -9
29 -1 7 -6 16 -11 20 -4 4 -5 3 -2 -3 10 -18 -20 -25 -34 -8 l-12 14 18 -6
c13 -5 16 -4 11 4 -4 7 -1 12 9 12 9 0 13 5 10 10 -8 13 -25 13 -25 1z" />
    <path d="M4814 1639 c-11 -18 18 -41 43 -34 13 3 23 2 23 -3 0 -4 9 -8 19 -8
11 0 17 4 14 9 -3 5 4 6 16 2 15 -4 21 -2 21 9 l0 16 -45 -7 c-28 -3 -45 -2
-45 4 0 14 -38 24 -46 12z" />
    <path d="M5042 1630 c-15 -12 -19 -21 -11 -25 13 -9 43 18 38 33 -2 6 -14 2
-27 -8z" />
    <path d="M700 1620 c0 -30 21 -90 32 -90 10 0 10 17 0 24 -4 2 -9 19 -10 38
-3 39 -22 64 -22 28z" />
    <path d="M1130 1629 c0 -25 31 -75 48 -76 9 -1 28 -4 42 -7 l25 -6 -27 11
c-16 6 -28 15 -28 20 0 4 -7 6 -15 2 -9 -3 -15 -2 -14 3 3 11 -19 64 -26 64
-3 0 -5 -5 -5 -11z" />
    <path d="M3266 1617 c5 -13 2 -18 -7 -16 -8 2 -25 -1 -38 -5 l-23 -8 27 -18
c46 -30 83 3 50 46 l-15 19 6 -18z m3 -39 c-9 -17 -49 -10 -49 8 0 3 5 2 10
-1 6 -3 10 -2 10 2 0 5 9 9 19 9 l19 0 -9 -18z" />
    <path d="M6164 1616 l6 -19 -15 13 -15 12 0 -16 c0 -9 7 -19 15 -22 8 -4 15
-12 15 -20 0 -13 18 -19 49 -15 7 2 10 -2 7 -8 -7 -11 24 -31 46 -31 8 1 7 5
-5 14 -14 11 -15 15 -5 19 12 5 1 7 -44 11 -17 1 -50 35 -44 44 3 5 0 14 -6
22 -8 12 -9 11 -4 -4z" />
    <path d="M3670 1602 c0 -15 -4 -21 -12 -16 -7 4 -8 3 -4 -4 7 -12 -5 -16 -32
-13 -7 1 -15 -5 -18 -14 -4 -10 -13 -14 -28 -10 -15 4 -17 3 -8 -3 l14 -9 -17
-7 c-21 -8 -37 2 -29 17 4 7 3 8 -1 4 -35 -31 7 -48 62 -25 38 17 39 18 23 29
-12 8 -10 9 7 4 30 -8 68 28 54 53 l-10 17 -1 -23z" />
    <path d="M4717 1613 c-3 -5 -3 -19 -2 -33 2 -14 4 -28 4 -32 1 -5 8 -8 16 -8
8 0 15 -4 15 -9 0 -10 50 -25 57 -17 3 3 -16 15 -42 27 -29 14 -42 25 -35 29
9 6 9 9 0 15 -6 4 -9 13 -6 21 6 15 0 19 -7 7z" />
    <path d="M1935 1591 c3 -16 -14 -26 -99 -60 -47 -19 -21 -24 32 -7 50 17 110
62 98 74 -14 13 -34 9 -31 -7z" />
    <path d="M5110 1601 c0 -16 38 -56 46 -48 4 4 -5 19 -19 33 -15 15 -27 21 -27
15z" />
    <path d="M3010 1588 c0 -16 11 -22 32 -19 4 0 5 -6 2 -14 -4 -8 -1 -15 6 -15
6 0 18 -7 26 -15 17 -17 69 -21 59 -5 -3 6 -16 10 -28 10 l-22 0 15 11 c12 9
10 10 -9 6 -17 -4 -25 -1 -28 14 -3 11 -11 18 -17 16 -6 -2 -16 3 -23 12 l-12
16 -1 -17z" />
    <path d="M1510 1577 c0 -10 7 -17 15 -17 8 0 15 -4 15 -10 0 -14 23 -12 45 4
l19 14 -29 -4 c-17 -1 -37 4 -47 13 l-18 16 0 -16z" />
    <path d="M5420 1563 c0 -21 5 -25 28 -22 4 1 6 5 5 10 -2 5 2 9 7 9 7 0 6 5
-2 13 -19 21 -38 16 -38 -10z" />
    <path d="M513 1564 c-3 -10 -12 -22 -19 -27 -14 -8 -8 -37 6 -37 11 0 34 69
26 77 -3 3 -9 -3 -13 -13z" />
    <path d="M1280 1565 c-7 -8 -9 -15 -4 -16 5 0 0 -5 -11 -10 l-20 -9 25 6 c14
3 32 6 41 7 9 1 15 7 12 14 -3 6 -12 9 -20 6 -11 -4 -14 -2 -9 5 10 17 1 15
-14 -3z" />
    <path d="M2642 1567 c-6 -7 -8 -17 -4 -23 20 -31 99 -46 99 -19 0 10 -4 12
-13 5 -22 -19 -70 12 -65 43 2 11 -5 9 -17 -6z" />
    <path d="M3430 1540 l-15 -10 15 -10 c20 -13 53 -13 45 0 -3 6 -13 10 -21 10
-8 0 -12 5 -9 10 8 12 4 12 -15 0z" />
    <path d="M3682 1521 l-21 -29 16 -14 c12 -9 15 -9 9 0 -4 7 -2 12 4 12 7 0 10
6 7 14 -3 8 0 17 8 20 10 3 12 0 9 -12 l-6 -17 10 14 c28 39 -7 51 -36 12z" />
    <path d="M4894 1541 l20 -8 -25 -7 -24 -8 18 -5 c10 -3 25 -2 34 1 l15 6 -12
15 c-7 8 -20 15 -29 14 -12 0 -12 -2 3 -8z" />
    <path d="M5176 1541 c-7 -11 49 -35 66 -28 8 4 5 8 -9 12 -13 4 -23 11 -23 16
0 12 -27 12 -34 0z" />
    <path d="M763 1533 c-31 -6 -29 -23 3 -23 14 0 23 4 19 9 -3 5 3 12 12 14 23
6 -4 6 -34 0z" />
    <path d="M1710 1510 c0 -5 16 -10 35 -10 19 0 35 5 35 10 0 6 -16 10 -35 10
-19 0 -35 -4 -35 -10z" />
    <path d="M458 1463 c4 -22 22 -33 22 -14 0 5 3 16 6 25 4 10 0 14 -13 13 -15
-1 -18 -7 -15 -24z" />
    <path d="M423 1458 c-19 -25 -26 -41 -15 -34 6 3 13 2 17 -3 7 -12 35 -3 35
11 0 6 -9 8 -21 5 -13 -3 -19 -1 -16 6 3 7 10 11 16 10 6 -2 11 2 11 7 0 14
-16 12 -27 -2z" />
    <path d="M3735 1460 c-3 -5 -11 -8 -18 -6 -7 1 -9 1 -4 -1 16 -10 -5 -21 -31
-17 -15 2 -22 1 -17 -3 6 -5 10 -14 9 -20 -1 -7 -2 -17 -3 -23 0 -5 -9 -2 -19
8 -13 11 -16 21 -9 30 6 8 6 12 -1 12 -6 0 -15 -8 -21 -17 -5 -10 -13 -14 -18
-10 -4 5 0 13 10 18 20 12 23 29 3 29 -24 0 -40 -28 -26 -45 7 -8 18 -15 24
-14 24 3 37 -2 31 -11 -4 -6 -12 -8 -18 -5 -7 3 -5 0 4 -6 l16 -12 -20 -23
c-11 -13 -24 -21 -28 -18 -5 3 -6 -2 -3 -10 8 -21 23 -20 31 2 3 9 22 32 42
50 26 25 32 35 22 41 -9 6 -10 11 -2 15 6 4 11 2 11 -4 0 -7 7 -10 15 -6 12 4
15 -3 15 -30 0 -20 4 -33 10 -29 5 3 6 13 3 22 -5 11 -3 14 6 8 10 -6 11 -3 2
13 -7 14 -8 23 -1 27 13 8 13 45 1 45 -6 0 -12 -4 -16 -10z" />
    <path d="M3523 1374 c-48 -49 -51 -53 -24 -51 11 1 17 6 14 14 -3 8 -2 13 3
11 5 -2 10 1 11 5 1 5 13 19 27 32 14 13 26 27 26 30 0 12 -18 0 -57 -41z" />
    <path d="M3566 1384 c-15 -15 -21 -34 -11 -34 12 0 43 40 35 45 -4 3 -16 -2
-24 -11z" />
    <path d="M3558 1329 c14 -15 16 -33 2 -24 -14 9 -12 -9 3 -24 l12 -13 -20 4
c-11 1 -23 8 -27 13 -5 6 -8 5 -8 -3 0 -7 -4 -11 -9 -8 -5 4 -7 -4 -3 -16 4
-16 7 -18 11 -7 5 13 13 15 38 10 3 0 -2 -10 -12 -21 -10 -11 -16 -23 -12 -26
9 -9 27 5 27 22 0 8 4 14 9 14 16 0 9 79 -8 85 l-16 6 13 -12z" />
    <path d="M3726 1278 c-10 -31 -14 -128 -5 -123 5 4 9 13 9 21 0 8 5 14 10 14
6 0 10 7 10 15 0 8 -4 15 -10 15 -5 0 -10 5 -10 11 0 5 5 7 10 4 6 -3 10 5 10
19 0 27 -18 45 -24 24z" />
    <path d="M3417 1248 c-4 -12 -1 -28 5 -36 l11 -13 8 14 c9 15 1 57 -11 57 -4
0 -10 -10 -13 -22z" />
    <path d="M3495 1210 c-8 -13 4 -70 15 -70 10 0 20 25 20 48 l-1 17 -15 -20
-16 -20 4 28 c5 29 3 34 -7 17z" />
    <path d="M3386 1188 c-8 -32 -7 -83 2 -74 4 4 7 17 8 29 0 12 4 32 8 45 4 12
3 22 -2 22 -5 0 -12 -10 -16 -22z" />
    <path d="M3851 1192 c-6 -12 -11 -31 -11 -44 l0 -23 -11 15 -11 15 6 -18 c3
-10 6 -21 6 -23 0 -23 20 6 29 42 13 51 9 67 -8 36z" />
    <path d="M3733 1103 c0 -37 2 -42 7 -23 5 14 8 19 9 11 1 -8 3 -12 6 -9 3 3
-1 19 -8 37 l-14 32 0 -48z" />
    <path d="M3499 1113 c-1 -5 -1 -11 0 -15 2 -13 -17 -9 -22 5 -3 6 -6 2 -6 -9
-1 -14 7 -24 19 -27 l20 -5 0 29 c0 26 -8 41 -11 22z" />
    <path d="M3808 1072 c3 -10 1 -13 -6 -8 -6 3 -13 2 -16 -3 -3 -5 2 -12 11 -15
16 -7 33 8 33 30 0 6 -6 11 -14 11 -8 0 -12 -6 -8 -15z" />
    <path d="M3380 1061 c0 -35 42 -82 55 -61 3 6 1 10 -5 10 -6 0 -9 3 -7 8 2 4
-7 18 -20 31 -13 13 -23 19 -23 12z" />
    <path d="M3496 1034 c-3 -8 -2 -13 3 -10 5 3 11 -1 14 -8 3 -8 1 -17 -6 -19
-7 -2 2 -2 18 0 l30 4 -15 -11 c-12 -9 -8 -10 20 -6 25 4 31 3 20 -4 -10 -6
-11 -10 -3 -10 15 0 86 39 94 52 4 6 10 5 15 -3 21 -34 5 -61 -21 -39 -11 9
-15 9 -15 1 0 -6 6 -11 13 -12 6 0 3 -4 -8 -9 -14 -6 -15 -9 -5 -9 46 -2 73
44 42 72 l-18 16 -33 -20 c-41 -25 -95 -19 -111 11 -13 24 -26 26 -34 4z" />
    <path d="M3777 1023 c5 -14 -12 -19 -20 -5 -2 4 -3 2 -1 -5 5 -23 -76 -73
-120 -73 -14 0 -28 -4 -31 -10 -11 -18 55 -11 98 11 65 33 119 96 83 96 -8 0
-12 -6 -9 -14z" />
    <path d="M3500 941 c0 -9 33 -21 60 -21 10 0 11 3 4 10 -14 14 -64 23 -64 11z" />
  </g>
  <g transform="translate(0.000000,366.000000) scale(0.100000,-0.100000)" fill="#e4e4e4" stroke="none">
    <path d="M2140 2735 c-17 -21 -5 -31 14 -12 9 9 25 12 42 9 19 -3 25 -1 20 7
-10 16 -61 14 -76 -4z" />
    <path d="M470 2730 c0 -5 6 -10 13 -10 7 0 23 -9 35 -20 24 -22 32 -25 32 -10
0 10 -58 50 -72 50 -5 0 -8 -4 -8 -10z" />
    <path d="M2310 2655 c0 -28 4 -44 10 -40 6 3 10 21 10 40 0 19 -4 37 -10 40
-6 4 -10 -12 -10 -40z" />
    <path d="M2127 2663 c-11 -10 -8 -83 3 -83 6 0 10 20 10 45 0 46 -2 50 -13 38z" />
    <path d="M540 2225 c0 -270 4 -434 9 -430 14 8 15 852 1 860 -7 4 -10 -134
-10 -430z" />
    <path d="M313 2593 c-10 -16 -20 -30 -23 -33 -24 -22 -86 -168 -75 -178 3 -3
10 10 17 29 30 87 100 195 119 183 5 -3 6 2 3 10 -9 23 -21 20 -41 -11z" />
    <path d="M130 2525 c-12 -20 -20 -38 -17 -41 2 -3 14 12 26 32 28 48 20 56 -9
9z" />
    <path d="M1935 2501 c2 -2 -3 -17 -11 -33 -8 -16 -13 -35 -11 -41 2 -7 10 2
18 18 l14 30 60 5 c33 3 53 9 45 12 -16 7 -121 16 -115 9z" />
    <path d="M2450 2470 c0 -5 16 -10 36 -10 21 0 33 4 29 10 -3 6 -19 10 -36 10
-16 0 -29 -4 -29 -10z" />
    <path d="M2548 2432 c3 -26 -1 -44 -12 -55 -19 -18 -20 -27 -5 -27 16 0 41 70
35 96 -10 38 -22 28 -18 -14z" />
    <path d="M72 2413 c-14 -28 -23 -73 -14 -73 8 0 33 82 27 88 -2 2 -8 -5 -13
-15z" />
    <path d="M367 2423 c-12 -11 -8 -693 3 -693 6 0 10 123 10 350 0 193 -1 350
-3 350 -2 0 -7 -3 -10 -7z" />
    <path d="M1955 2360 c3 -5 33 -10 66 -10 33 0 59 4 59 10 0 6 -29 10 -66 10
-41 0 -63 -4 -59 -10z" />
    <path d="M4170 2360 l-14 -9 27 -21 c16 -13 27 -31 27 -46 0 -14 4 -23 8 -20
14 8 8 40 -14 74 -14 23 -23 29 -34 22z" />
    <path d="M2307 2353 c-12 -11 -8 -65 4 -58 6 4 8 10 5 13 -4 3 1 16 9 29 l15
23 -13 0 c-8 0 -17 -3 -20 -7z" />
    <path d="M4059 2341 c-13 -11 -21 -23 -17 -27 5 -4 16 0 26 9 10 10 24 17 30
17 7 0 12 5 12 10 0 16 -26 12 -51 -9z" />
    <path d="M1644 2330 c-45 -20 -65 -40 -40 -40 9 0 16 5 16 10 0 6 6 10 13 10
22 1 71 26 62 32 -6 3 -29 -3 -51 -12z" />
    <path d="M2704 2324 l-19 -15 25 5 c14 3 28 6 33 6 4 0 7 5 7 10 0 15 -24 12
-46 -6z" />
    <path d="M3460 2323 c-19 -8 -30 -17 -23 -20 11 -4 73 23 73 32 0 8 -13 5 -50
-12z" />
    <path d="M3590 2331 c0 -5 13 -12 29 -16 15 -3 41 -19 56 -35 35 -36 41 -37
49 -6 5 20 14 26 44 28 28 3 33 6 19 12 -25 12 -68 -2 -74 -24 l-5 -19 -37 28
c-40 32 -81 48 -81 32z" />
    <path d="M4795 2324 c-36 -18 -64 -44 -48 -44 6 0 16 6 22 14 7 8 26 18 42 21
16 4 29 11 29 16 0 13 -10 11 -45 -7z" />
    <path d="M4930 2333 c0 -10 82 -45 88 -39 6 6 -60 46 -75 46 -7 0 -13 -3 -13
-7z" />
    <path d="M750 2323 c0 -5 23 -15 50 -22 28 -7 50 -18 51 -24 0 -7 0 -90 -1
-184 l-2 -173 14 0 c11 0 68 137 68 163 0 24 -19 -10 -36 -65 l-19 -63 -5 164
-5 164 -25 18 c-29 20 -90 35 -90 22z" />
    <path d="M1094 2316 c-30 -13 -54 -36 -38 -36 11 0 94 41 94 46 0 8 -25 3 -56
-10z" />
    <path d="M1160 2320 c0 -5 7 -10 16 -10 14 0 71 -27 84 -40 20 -20 40 -31 40
-22 0 6 -19 24 -42 40 -47 32 -98 49 -98 32z" />
    <path d="M5420 2315 c-7 -9 -9 -19 -5 -23 4 -4 10 -1 12 6 3 6 20 12 39 12 21
0 33 4 29 10 -10 15 -61 12 -75 -5z" />
    <path d="M5750 2320 c0 -5 8 -10 19 -10 74 0 111 -48 111 -145 0 -37 4 -65 10
-65 15 0 12 116 -4 154 -19 45 -136 102 -136 66z" />
    <path d="M6065 2320 c-4 -6 8 -10 30 -10 20 0 50 -7 66 -16 17 -8 36 -13 42
-11 16 6 -79 47 -108 47 -13 0 -27 -4 -30 -10z" />
    <path d="M2880 2315 c0 -9 60 -65 70 -65 5 0 10 10 12 23 l3 22 57 -1 c64 -1
69 11 9 21 -45 7 -81 -7 -81 -32 0 -13 -6 -11 -28 10 -27 26 -42 33 -42 22z" />
    <path d="M5056 2295 c-30 -28 -32 -35 -11 -35 8 0 15 6 15 14 0 15 21 26 51
26 11 0 17 5 14 10 -11 17 -41 11 -69 -15z" />
    <path d="M5510 2311 c0 -5 14 -11 30 -14 l30 -6 0 -136 0 -135 14 0 c8 0 17 7
20 16 8 22 8 26 -4 19 -6 -4 -10 34 -10 108 l0 114 -20 18 c-23 20 -60 30 -60
16z" />
    <path d="M3810 2301 c0 -6 7 -11 15 -11 8 0 24 -9 34 -19 l19 -19 -6 -47 c-3
-35 -2 -46 7 -41 30 19 5 136 -29 136 -5 0 -15 3 -24 6 -9 3 -16 1 -16 -5z" />
    <path d="M5150 2301 c0 -5 14 -12 30 -16 17 -4 30 -11 30 -16 0 -5 5 -9 10 -9
21 0 8 19 -24 34 -39 18 -46 19 -46 7z" />
    <path d="M6019 2274 c-52 -134 -73 -204 -59 -204 6 0 10 7 10 15 0 9 16 59 36
111 19 53 33 98 30 101 -3 3 -11 -7 -17 -23z" />
    <path d="M1556 2258 c-25 -39 -42 -116 -28 -130 9 -9 12 -4 12 25 0 21 9 57
20 79 22 46 20 63 -4 26z" />
    <path d="M3111 2214 c-1 -42 2 -63 9 -59 12 8 13 112 1 119 -5 3 -9 -24 -10
-60z" />
    <path d="M5659 2236 c-11 -26 -18 -50 -15 -53 3 -3 15 16 26 42 11 26 18 50
15 53 -2 3 -14 -16 -26 -42z" />
    <path d="M4365 2260 c-4 -6 7 -10 27 -10 18 0 44 -3 58 -6 l25 -5 -19 15 c-22
18 -81 22 -91 6z" />
    <path d="M4691 2222 c-45 -70 -82 -182 -61 -182 6 0 10 9 10 20 0 28 43 133
70 171 12 16 20 32 17 35 -2 3 -18 -17 -36 -44z" />
    <path d="M6234 2250 c3 -14 6 -40 6 -58 0 -22 4 -31 11 -26 14 8 5 82 -12 98
-9 8 -10 5 -5 -14z" />
    <path d="M2601 2231 c-39 -55 -82 -171 -62 -171 4 0 11 13 14 29 8 37 45 120
65 144 8 9 13 20 10 23 -3 3 -15 -8 -27 -25z" />
    <path d="M3367 2242 c-18 -20 -22 -42 -9 -42 10 0 35 50 29 56 -2 2 -11 -4
-20 -14z" />
    <path d="M978 2197 c-38 -56 -55 -97 -41 -97 5 0 17 19 28 43 10 23 27 55 38
70 10 16 17 30 15 33 -3 2 -21 -20 -40 -49z" />
    <path d="M2757 2168 c-32 -40 -56 -88 -43 -88 3 0 13 15 22 33 8 17 32 47 52
64 26 23 32 33 20 33 -9 0 -32 -19 -51 -42z" />
    <path d="M2883 2176 c21 -19 40 -47 43 -65 6 -29 24 -54 24 -33 0 44 -59 132
-89 132 -9 0 -1 -13 22 -34z" />
    <path d="M56 2158 c11 -37 38 -72 42 -58 3 7 0 15 -6 19 -6 3 -14 19 -17 34
-4 15 -11 27 -17 27 -5 0 -6 -10 -2 -22z" />
    <path d="M200 2159 c0 -7 11 -36 26 -66 15 -32 23 -62 19 -73 -7 -22 5 -26 23
-8 9 9 5 24 -18 63 -17 29 -30 59 -30 68 0 9 -4 19 -10 22 -5 3 -10 1 -10 -6z" />
    <path d="M5010 2166 c0 -12 32 -77 36 -73 6 6 -22 77 -30 77 -4 0 -6 -2 -6 -4z" />
    <path d="M2290 2079 c0 -51 4 -78 10 -74 6 3 10 40 10 81 0 43 -4 74 -10 74
-6 0 -10 -34 -10 -81z" />
    <path d="M5218 2137 c-12 -30 -10 -103 3 -90 5 5 9 32 7 59 -2 34 -5 43 -10
31z" />
    <path d="M4250 2130 c0 -5 13 -10 30 -10 22 0 28 -4 24 -15 -4 -8 -1 -15 5
-15 12 0 14 11 5 34 -7 18 -64 23 -64 6z" />
    <path d="M4165 2094 c-8 -20 -15 -38 -15 -40 0 -6 -109 -228 -122 -249 -7 -11
-26 -39 -41 -63 -43 -65 -27 -60 19 6 46 66 133 234 159 307 10 28 23 56 28
63 6 8 6 12 -2 12 -6 0 -18 -16 -26 -36z" />
    <path d="M4056 2108 c-3 -7 -9 -28 -15 -47 -12 -38 -8 -53 7 -24 13 24 25 83
17 83 -3 0 -7 -6 -9 -12z" />
    <path d="M5702 2073 c-20 -44 -52 -129 -52 -140 0 -14 19 11 24 32 11 45 58
135 67 129 5 -3 9 2 9 10 0 32 -26 15 -48 -31z" />
    <path d="M6041 2034 c-18 -48 -29 -89 -27 -91 5 -5 23 34 47 102 l14 40 3 -67
c4 -97 19 -84 21 17 l2 85 -15 0 c-9 0 -26 -32 -45 -86z" />
    <path d="M1050 2095 c0 -8 -3 -15 -8 -15 -9 0 -36 -59 -29 -66 4 -4 57 81 57
92 0 2 -4 4 -10 4 -5 0 -10 -7 -10 -15z" />
    <path d="M1530 2105 c0 -2 7 -19 16 -38 l16 -34 -21 -41 c-12 -23 -21 -44 -21
-47 0 -16 21 10 41 49 l22 44 -22 36 c-21 33 -31 43 -31 31z" />
    <path d="M116 2054 c-3 -8 -2 -12 4 -9 6 3 22 -2 38 -13 34 -24 72 -37 72 -23
0 5 -13 12 -29 16 -15 3 -38 15 -49 25 -25 24 -28 24 -36 4z" />
    <path d="M1740 2060 c0 -5 13 -16 29 -25 16 -8 35 -20 43 -27 28 -27 89 -70
94 -66 4 5 -30 35 -106 93 -47 36 -60 42 -60 25z" />
    <path d="M1127 2053 c-11 -10 -8 -83 3 -83 6 0 10 20 10 45 0 46 -2 50 -13 38z" />
    <path d="M1298 2044 c-5 -4 -8 -23 -8 -43 0 -25 3 -32 11 -24 6 6 9 25 7 43
-2 17 -6 28 -10 24z" />
    <path d="M2940 2021 c0 -16 5 -33 10 -36 6 -4 10 6 10 24 0 16 -4 33 -10 36
-6 4 -10 -6 -10 -24z" />
    <path d="M5740 1991 c0 -28 5 -53 10 -56 6 -4 10 15 10 49 0 31 -4 56 -10 56
-5 0 -10 -22 -10 -49z" />
    <path d="M5930 2006 c-12 -33 -13 -46 -1 -46 9 0 24 60 16 68 -2 3 -9 -7 -15
-22z" />
    <path d="M3987 1926 c-40 -85 -41 -86 -29 -86 11 0 74 140 69 153 -2 6 -20
-25 -40 -67z" />
    <path d="M953 1893 c-39 -109 -48 -141 -36 -128 5 6 24 48 40 95 17 47 34 93
38 103 4 9 3 17 -2 17 -5 0 -23 -39 -40 -87z" />
    <path d="M1613 1948 c-5 -7 -13 -20 -17 -28 -3 -8 -15 -28 -26 -45 -10 -16
-37 -61 -58 -100 -22 -38 -52 -83 -66 -100 -23 -27 -34 -55 -21 -55 11 0 209
329 202 336 -2 2 -9 -1 -14 -8z" />
    <path d="M2101 1936 c-6 -16 -10 -34 -8 -40 3 -6 10 2 16 18 6 16 10 34 8 40
-3 6 -10 -2 -16 -18z" />
    <path d="M3277 1953 c-11 -10 -8 -63 3 -63 6 0 10 16 10 35 0 36 -2 40 -13 28z" />
    <path d="M5892 1940 c4 -30 31 -33 36 -5 2 11 1 17 -3 13 -5 -4 -15 -2 -23 4
l-14 12 4 -24z" />
    <path d="M2947 1943 c-11 -10 -8 -63 3 -63 6 0 10 16 10 35 0 36 -2 40 -13 28z" />
    <path d="M4277 1943 c-11 -10 -8 -53 3 -53 6 0 10 14 10 30 0 31 -2 35 -13 23z" />
    <path d="M2680 1883 c0 -32 5 -65 10 -73 7 -10 10 7 10 58 0 41 -4 72 -10 72
-6 0 -10 -26 -10 -57z" />
    <path d="M6080 1901 c0 -22 5 -43 10 -46 6 -4 10 12 10 39 0 25 -4 46 -10 46
-5 0 -10 -18 -10 -39z" />
    <path d="M3446 1904 c-10 -25 -7 -84 4 -84 6 0 10 23 10 50 0 52 -4 61 -14 34z" />
    <path d="M4607 1913 c-11 -10 -8 -51 3 -58 6 -4 10 8 10 29 0 37 -2 41 -13 29z" />
    <path d="M5047 1903 c-11 -10 -8 -63 3 -63 6 0 10 16 10 35 0 36 -2 40 -13 28z" />
    <path d="M1439 1813 c-64 -105 -64 -103 -50 -103 6 0 11 7 11 15 0 8 5 15 10
15 6 0 10 6 10 13 0 7 8 22 18 33 22 26 65 104 59 110 -2 2 -28 -35 -58 -83z" />
    <path d="M1770 1857 c0 -3 10 -22 22 -42 13 -24 21 -53 20 -81 0 -24 4 -44 9
-44 15 0 10 79 -7 116 -14 30 -44 64 -44 51z" />
    <path d="M2505 1835 c-20 -60 -60 -133 -68 -128 -6 3 -7 1 -3 -5 3 -6 -11 -24
-31 -41 -21 -17 -32 -31 -25 -31 41 0 154 174 139 214 -3 6 -8 2 -12 -9z" />
    <path d="M6420 1805 c-7 -9 -9 -19 -5 -23 4 -4 10 -1 12 6 3 6 14 12 24 12 11
0 17 5 14 10 -9 15 -31 12 -45 -5z" />
    <path d="M4270 1786 c0 -14 5 -28 10 -31 6 -4 10 7 10 24 0 17 -4 31 -10 31
-5 0 -10 -11 -10 -24z" />
    <path d="M2080 1744 c-36 -79 -133 -177 -199 -200 -54 -20 -71 -39 -23 -28 77
19 176 110 228 209 16 30 32 51 36 49 4 -3 8 2 8 10 0 34 -26 13 -50 -40z" />
    <path d="M2916 1755 c-19 -44 -19 -45 -6 -45 9 0 33 71 25 78 -2 2 -11 -13
-19 -33z" />
    <path d="M3675 1757 c-17 -42 -18 -47 -7 -47 10 0 34 72 27 79 -3 2 -12 -12
-20 -32z" />
    <path d="M5764 1745 c3 -27 11 -54 17 -60 8 -7 9 4 4 40 -4 28 -12 55 -17 60
-7 7 -9 -6 -4 -40z" />
    <path d="M2010 1765 c-7 -8 -16 -12 -21 -9 -5 3 -9 -2 -9 -10 0 -23 23 -20 38
5 16 25 10 36 -8 14z" />
    <path d="M5011 1734 c-12 -26 -19 -50 -16 -53 8 -8 23 18 35 58 14 52 5 49
-19 -5z" />
    <path d="M2695 1739 c10 -43 36 -99 47 -99 11 0 11 0 -12 45 -11 22 -20 47
-20 57 0 9 -5 20 -11 24 -8 4 -9 -4 -4 -27z" />
    <path d="M697 1743 c-11 -10 -8 -81 3 -88 6 -4 10 13 10 44 0 52 -1 56 -13 44z" />
    <path d="M4790 1733 c0 -16 25 -73 32 -73 4 0 8 -5 8 -11 0 -15 31 -38 50 -39
9 0 2 10 -16 25 -18 14 -39 43 -48 65 -14 36 -26 51 -26 33z" />
    <path d="M3266 1695 c-20 -46 -20 -51 -2 -36 15 13 30 60 22 68 -3 3 -12 -12
-20 -32z" />
    <path d="M3460 1720 c0 -17 33 -80 43 -80 5 0 7 3 5 8 -2 4 -12 24 -21 45 -17
36 -27 47 -27 27z" />
    <path d="M6381 1685 c-13 -30 -25 -44 -32 -39 -8 4 -9 3 -5 -4 5 -8 0 -12 -13
-12 -12 0 -21 -4 -21 -10 0 -42 72 11 91 67 17 52 3 51 -20 -2z" />
    <path d="M5354 1675 c-16 -25 -39 -48 -51 -51 -29 -8 -30 -24 -2 -19 25 5 67
48 80 83 16 41 4 35 -27 -13z" />
    <path d="M4450 1701 c0 -19 39 -81 52 -81 6 0 4 8 -5 18 -10 10 -17 23 -17 28
0 17 -29 51 -30 35z" />
    <path d="M2135 1678 c4 -13 17 -44 30 -69 16 -30 20 -50 14 -58 -6 -7 -5 -8 2
-2 7 6 24 0 46 -15 20 -13 41 -24 47 -23 6 0 0 8 -14 17 -49 32 -87 81 -100
126 -7 25 -17 46 -22 46 -5 0 -6 -10 -3 -22z" />
    <path d="M2493 1653 c-27 -60 -22 -68 9 -14 28 49 30 50 46 9 16 -43 24 -31
10 15 -16 51 -38 47 -65 -10z" />
    <path d="M3125 1675 c7 -32 31 -65 48 -65 6 0 3 8 -6 18 -10 10 -17 23 -17 28
0 6 -7 19 -16 30 l-15 19 6 -30z" />
    <path d="M4295 1668 c9 -28 46 -90 51 -85 2 2 -5 21 -16 42 -11 22 -20 45 -20
52 0 7 -5 13 -11 13 -6 0 -8 -9 -4 -22z" />
    <path d="M3624 1662 c-29 -29 -58 -42 -84 -35 -16 4 -21 3 -16 -5 13 -22 64
-13 98 17 18 16 30 32 26 36 -3 3 -14 -2 -24 -13z" />
    <path d="M5066 1653 c-3 -10 -8 -23 -11 -29 -3 -6 1 -11 9 -11 8 0 12 7 9 16
-7 22 35 -29 43 -51 3 -10 10 -18 15 -18 13 0 11 11 -5 29 -7 9 -18 29 -23 45
-11 35 -28 44 -37 19z" />
    <path d="M5785 1648 c4 -13 14 -30 22 -38 l16 -15 -8 20 c-4 11 -10 28 -12 38
-3 9 -10 17 -15 17 -5 0 -6 -10 -3 -22z" />
    <path d="M2957 1640 c-9 -11 -17 -26 -17 -33 0 -6 8 -2 18 11 l18 23 12 -27
c17 -36 28 -22 12 16 -15 35 -20 37 -43 10z" />
    <path d="M4575 1640 c-10 -11 -26 -20 -37 -20 -10 0 -18 -5 -18 -11 0 -15 41
-1 64 22 11 10 17 21 15 24 -3 3 -14 -4 -24 -15z" />
    <path d="M4935 1635 c-16 -14 -26 -25 -22 -25 16 0 67 31 67 40 0 16 -13 11
-45 -15z" />
    <path d="M1510 1624 c-16 -41 4 -93 27 -70 4 4 1 11 -6 15 -10 6 -12 19 -7 45
8 42 0 48 -14 10z" />
    <path d="M6120 1643 c0 -15 52 -93 61 -93 6 0 9 -6 6 -12 -3 -8 5 -14 19 -14
13 -1 24 2 24 7 0 5 -4 9 -9 9 -16 0 -57 43 -75 78 -16 30 -26 40 -26 25z" />
    <path d="M3297 1610 c-9 -11 -17 -26 -17 -33 0 -6 10 1 23 16 l22 28 17 -29
c36 -61 179 -120 202 -83 5 7 -7 11 -39 11 -57 0 -99 21 -146 71 -41 45 -39
45 -62 19z" />
    <path d="M4637 1612 c-9 -10 -17 -25 -17 -33 1 -9 7 -7 19 8 14 17 21 19 31
10 9 -9 11 -8 8 7 -4 27 -21 30 -41 8z" />
    <path d="M520 1588 c0 -7 -3 -24 -6 -38 -5 -17 -4 -22 4 -15 16 15 26 65 13
65 -6 0 -11 -6 -11 -12z" />
    <path d="M5414 1569 c5 -34 21 -57 33 -46 4 4 1 13 -5 19 -7 7 -12 22 -12 35
0 13 -5 23 -11 23 -6 0 -8 -13 -5 -31z" />
    <path d="M700 1576 c0 -47 83 -88 144 -72 43 11 29 24 -18 19 -67 -8 -93 2
-101 37 -7 31 -25 42 -25 16z" />
    <path d="M2426 1564 c-27 -24 -30 -48 -3 -26 8 7 17 10 20 7 4 -3 5 -2 2 2 -3
3 0 12 7 20 20 24 4 22 -26 -3z" />
    <path d="M2590 1582 c0 -14 39 -46 47 -39 3 4 -2 16 -12 27 -19 21 -35 26 -35
12z" />
    <path d="M5004 1577 c-2 -7 -25 -22 -49 -32 -40 -18 -59 -35 -37 -35 15 0 112
61 112 70 0 15 -20 12 -26 -3z" />
    <path d="M5836 1579 c7 -11 63 -19 94 -12 50 9 34 18 -34 18 -35 0 -63 -3 -60
-6z" />
    <path d="M6392 1555 l-33 -32 21 -6 c12 -3 19 -3 16 0 -3 3 4 19 15 35 29 41
20 42 -19 3z" />
    <path d="M3654 1569 c-3 -6 -27 -19 -52 -30 -24 -11 -42 -22 -39 -26 8 -7 117
47 117 59 0 12 -18 10 -26 -3z" />
    <path d="M1150 1562 c0 -17 47 -52 77 -58 32 -6 140 34 116 43 -7 2 -23 -3
-35 -11 -39 -28 -123 -18 -133 15 -6 19 -25 27 -25 11z" />
    <path d="M2865 1552 c-16 -10 -32 -18 -34 -19 -2 -2 -2 -6 2 -9 6 -6 77 33 77
42 0 7 -14 3 -45 -14z" />
    <path d="M3870 1425 c0 -82 4 -124 10 -120 6 4 10 55 10 120 0 65 -4 116 -10
120 -6 4 -10 -38 -10 -120z" />
    <path d="M4380 1545 c0 -5 55 -35 65 -35 15 0 2 18 -20 28 -27 13 -45 15 -45
7z" />
    <path d="M4560 1534 c-14 -7 -42 -14 -63 -14 -23 0 -36 -4 -32 -10 8 -13 47
-13 82 2 15 6 31 11 35 10 3 -1 9 5 12 13 6 18 -1 18 -34 -1z" />
    <path d="M4730 1536 c18 -17 60 -30 60 -19 0 9 -47 33 -64 33 -6 0 -4 -6 4
-14z" />
    <path d="M2295 1510 c3 -5 19 -10 35 -10 16 0 32 5 35 10 4 6 -10 10 -35 10
-25 0 -39 -4 -35 -10z" />
    <path d="M2715 1510 c3 -5 21 -10 40 -10 19 0 37 5 40 10 4 6 -12 10 -40 10
-28 0 -44 -4 -40 -10z" />
    <path d="M3125 1510 c3 -5 17 -10 30 -10 13 0 27 5 30 10 4 6 -8 10 -30 10
-22 0 -34 -4 -30 -10z" />
    <path d="M4805 1510 c3 -5 21 -10 40 -10 19 0 37 5 40 10 4 6 -12 10 -40 10
-28 0 -44 -4 -40 -10z" />
    <path d="M5225 1510 c3 -5 19 -10 35 -10 16 0 32 5 35 10 4 6 -10 10 -35 10
-25 0 -39 -4 -35 -10z" />
    <path d="M5485 1510 c3 -5 24 -10 45 -10 21 0 42 5 45 10 4 6 -13 10 -45 10
-32 0 -49 -4 -45 -10z" />
    <path d="M6265 1510 c3 -5 19 -10 35 -10 16 0 32 5 35 10 4 6 -10 10 -35 10
-25 0 -39 -4 -35 -10z" />
    <path d="M347 1493 c-10 -19 -17 -63 -8 -63 4 0 11 14 15 32 6 31 3 47 -7 31z" />
    <path d="M3610 1465 c-13 -14 -19 -25 -14 -25 14 0 54 30 54 41 0 16 -16 10
-40 -16z" />
    <path d="M3717 1406 c4 -6 6 -39 5 -73 -1 -37 2 -63 8 -63 6 0 10 30 10 73 0
58 -3 74 -15 74 -8 0 -11 -5 -8 -11z" />
    <path d="M406 1395 c-8 -8 -19 -15 -25 -15 -6 0 -11 -4 -11 -10 0 -16 13 -12
45 15 17 13 25 24 18 25 -6 0 -18 -7 -27 -15z" />
    <path d="M3831 1115 c-13 -41 -27 -75 -32 -75 -5 0 -9 -8 -9 -17 l0 -18 20 25
c17 22 60 130 60 152 0 29 -19 -3 -39 -67z" />
    <path d="M3510 1161 c-12 -24 -14 -59 -1 -45 10 10 24 64 17 64 -3 0 -10 -9
-16 -19z" />
    <path d="M3377 1163 c-11 -10 -8 -81 3 -88 6 -4 10 13 10 44 0 52 -1 56 -13
44z" />
    <path d="M3700 1124 c-6 -14 -10 -30 -10 -35 0 -6 -3 -8 -7 -6 -5 3 -9 -6 -9
-19 -4 -52 25 -12 42 59 8 34 -3 35 -16 1z" />
    <path d="M3501 1060 c0 -22 32 -56 60 -64 l24 -7 -20 15 c-26 19 -33 27 -50
51 -11 15 -14 16 -14 5z" />
    <path d="M3434 958 c-4 -7 -4 -10 1 -6 4 4 25 -2 46 -12 40 -21 59 -25 59 -12
0 20 -96 47 -106 30z" />
  </g>
  <g transform="translate(0.000000,366.000000) scale(0.100000,-0.100000)" fill="#202020" stroke="none">
    <path d="M378 2740 c-25 -7 -79 -40 -66 -40 3 0 25 9 50 20 25 11 55 17 69 14
19 -5 21 -3 9 5 -17 12 -25 12 -62 1z" />
    <path d="M544 2285 c0 -148 2 -211 3 -138 2 72 2 194 0 270 -1 76 -3 17 -3
-132z" />
    <path d="M1942 2488 c-7 -7 -12 -16 -12 -22 0 -6 5 -5 12 2 7 7 25 12 42 12
34 0 32 5 -5 13 -14 4 -31 1 -37 -5z" />
    <path d="M2045 2360 c50 -11 81 -12 71 -3 -4 4 -30 8 -59 9 l-52 3 40 -9z" />
    <path d="M1755 2326 c11 -8 28 -23 38 -32 9 -10 17 -13 17 -8 -1 17 -25 41
-50 48 l-25 7 20 -15z" />
    <path d="M2711 2324 c-19 -8 -32 -17 -29 -19 5 -6 78 22 78 30 0 8 -13 5 -49
-11z" />
    <path d="M4920 2335 c0 -3 18 -12 40 -21 22 -9 40 -20 40 -25 0 -5 5 -9 10 -9
24 0 7 20 -33 39 -44 21 -57 25 -57 16z" />
    <path d="M3448 2312 c-16 -9 -28 -20 -28 -24 0 -11 9 -10 23 2 7 6 21 17 32
25 28 20 6 18 -27 -3z" />
    <path d="M5715 2314 l-20 -16 20 8 c27 9 73 6 97 -7 11 -6 22 -8 25 -6 21 21
-98 42 -122 21z" />
    <path d="M780 2316 c0 -2 18 -13 40 -24 22 -11 40 -15 40 -10 0 5 -16 16 -35
24 -36 15 -45 17 -45 10z" />
    <path d="M1067 2293 c-20 -14 -37 -30 -37 -35 0 -8 49 24 85 54 23 20 -14 6
-48 -19z" />
    <path d="M5144 2301 c4 -6 13 -11 20 -11 7 0 25 -9 40 -21 14 -11 26 -16 26
-11 0 12 -36 36 -69 47 -16 5 -21 4 -17 -4z" />
    <path d="M6155 2299 c8 -12 56 -32 62 -25 5 4 -50 36 -62 36 -3 0 -3 -5 0 -11z" />
    <path d="M5574 2155 c0 -71 1 -99 3 -62 2 37 2 96 0 130 -2 34 -3 4 -3 -68z" />
    <path d="M851 2118 c-1 -73 0 -130 3 -127 7 6 10 249 3 255 -3 3 -6 -54 -6
-128z" />
    <path d="M980 2195 c-12 -20 -20 -38 -17 -41 2 -3 14 12 26 32 28 48 20 56 -9
9z" />
    <path d="M5881 2153 c-1 -28 3 -54 8 -57 5 -3 6 16 4 42 -7 69 -11 74 -12 15z" />
    <path d="M56 2168 c8 -27 35 -70 40 -65 4 4 -36 87 -43 87 -2 0 -1 -10 3 -22z" />
    <path d="M4812 2109 c-18 -47 -24 -74 -16 -66 10 10 34 80 29 86 -3 2 -8 -7
-13 -20z" />
    <path d="M5695 2059 c-36 -81 -28 -84 12 -3 18 35 28 64 24 64 -5 0 -21 -27
-36 -61z" />
    <path d="M1709 2079 c-8 -16 -8 -20 1 -14 6 4 20 -1 31 -11 28 -26 31 -13 4
19 l-24 27 -12 -21z" />
    <path d="M4141 2034 c-12 -26 -19 -49 -16 -52 2 -3 14 17 25 43 11 26 19 50
16 52 -2 3 -14 -17 -25 -43z" />
    <path d="M5741 2059 c1 -13 5 -35 9 -49 l9 -25 -3 42 c-3 45 -17 74 -15 32z" />
    <path d="M6089 2063 c0 -10 -2 -31 -3 -46 -1 -16 2 -31 6 -33 4 -3 8 18 8 45
0 47 -9 74 -11 34z" />
    <path d="M245 2053 c9 -33 -1 -44 -32 -32 -14 5 -28 7 -31 5 -10 -11 53 -28
68 -18 16 10 15 41 -2 57 -7 7 -8 3 -3 -12z" />
    <path d="M372 1920 c-1 -85 -5 -173 -8 -195 -5 -30 -4 -37 5 -29 8 7 11 65 8
195 l-2 184 -3 -155z" />
    <path d="M1000 2010 c-12 -23 -19 -44 -16 -47 2 -3 14 14 26 37 12 23 19 44
16 47 -2 3 -14 -14 -26 -37z" />
    <path d="M1132 2019 c-1 -9 -5 -32 -8 -50 -5 -26 -4 -31 5 -23 7 7 11 28 8 50
-2 22 -4 32 -5 23z" />
    <path d="M1514 1933 c-15 -26 -33 -59 -41 -71 -8 -13 -13 -26 -10 -28 3 -3 23
27 46 67 23 39 40 74 37 76 -2 3 -17 -17 -32 -44z" />
    <path d="M6085 1958 c-2 -7 0 -29 4 -48 l9 -35 1 48 c1 45 -5 60 -14 35z" />
    <path d="M1561 1864 c-12 -20 -20 -38 -18 -41 3 -2 15 12 27 32 12 20 20 38
17 41 -2 3 -14 -12 -26 -32z" />
    <path d="M3956 1854 c-34 -61 -26 -70 9 -9 15 25 25 48 22 51 -2 3 -17 -16
-31 -42z" />
    <path d="M4030 1815 c-12 -20 -20 -38 -17 -41 2 -3 14 12 26 32 28 48 20 56
-9 9z" />
    <path d="M2480 1767 c-44 -94 -45 -96 -21 -67 20 24 65 129 59 136 -2 1 -19
-30 -38 -69z" />
    <path d="M1388 1726 c-26 -41 -52 -53 -73 -36 -9 7 -15 8 -15 2 0 -5 7 -15 15
-22 l16 -13 26 20 c33 24 69 71 61 79 -4 3 -17 -10 -30 -30z" />
    <path d="M5010 1720 c-7 -18 -25 -46 -39 -63 -15 -18 -19 -28 -11 -25 19 6 73
93 68 109 -2 7 -10 -2 -18 -21z" />
    <path d="M1451 1684 c-18 -25 -31 -48 -28 -50 3 -3 19 15 37 41 42 60 33 69
-9 9z" />
    <path d="M4292 1693 c5 -21 14 -42 20 -48 7 -7 8 -2 3 15 -22 72 -41 100 -23
33z" />
    <path d="M2305 1699 c11 -33 35 -69 47 -69 5 0 0 12 -11 26 -12 15 -21 33 -21
40 0 7 -5 16 -11 20 -8 4 -9 -1 -4 -17z" />
    <path d="M2511 1694 c-6 -15 -9 -29 -7 -32 3 -3 8 3 12 12 9 22 21 20 27 -6 4
-12 9 -20 12 -17 7 7 -15 69 -24 69 -4 0 -13 -12 -20 -26z" />
    <path d="M6378 1670 c-14 -27 -22 -50 -17 -50 9 0 53 89 47 96 -3 2 -16 -18
-30 -46z" />
    <path d="M1802 1675 c-12 -19 -17 -35 -12 -35 11 0 44 59 37 66 -2 3 -14 -11
-25 -31z" />
    <path d="M4810 1672 c0 -16 48 -62 64 -62 6 0 2 8 -9 18 -11 9 -28 26 -37 37
-11 11 -18 14 -18 7z" />
    <path d="M5077 1674 c-11 -11 -9 -26 3 -19 6 3 10 -2 10 -12 0 -23 47 -93 62
-93 6 0 2 10 -10 23 -11 12 -29 41 -39 65 -10 24 -22 40 -26 36z" />
    <path d="M4622 1595 c-18 -25 -29 -45 -24 -45 5 0 20 15 33 34 18 26 27 32 36
24 14 -12 16 -8 7 16 -9 24 -16 20 -52 -29z" />
    <path d="M5406 1632 c-4 -6 0 -24 8 -39 l15 -28 0 20 c-1 32 -14 61 -23 47z" />
    <path d="M6417 1590 c-14 -22 -22 -40 -17 -40 10 0 54 69 48 75 -3 3 -16 -13
-31 -35z" />
    <path d="M3165 1610 c4 -6 17 -9 30 -7 40 5 41 17 1 17 -23 0 -35 -4 -31 -10z" />
    <path d="M3276 1585 c-15 -19 -41 -42 -57 -51 -17 -8 -28 -18 -25 -21 9 -9 70
34 95 67 12 17 21 34 18 36 -2 3 -16 -11 -31 -31z" />
    <path d="M527 1603 c-4 -3 -7 -13 -7 -22 0 -9 -11 -40 -25 -70 -29 -62 -26
-82 3 -24 31 59 50 137 29 116z" />
    <path d="M1346 1564 c-22 -19 -35 -34 -30 -34 13 0 80 57 74 63 -3 3 -23 -10
-44 -29z" />
    <path d="M2590 1594 c0 -13 48 -59 55 -52 3 2 -9 17 -25 33 -17 16 -30 24 -30
19z" />
    <path d="M860 1546 c-6 -18 -18 -26 -42 -29 l-33 -4 37 -1 c38 -2 46 4 53 38
5 28 -4 25 -15 -4z" />
    <path d="M5270 1520 l-35 -7 42 -2 c23 0 45 4 48 9 7 11 -3 11 -55 0z" />
    <path d="M3635 1480 c-16 -16 -24 -30 -19 -30 6 0 23 14 39 30 16 17 24 30 19
30 -6 0 -23 -13 -39 -30z" />
    <path d="M3873 1390 c0 -47 2 -66 4 -42 2 23 2 61 0 85 -2 23 -4 4 -4 -43z" />
    <path d="M3550 1240 c-18 -28 -30 -53 -28 -55 3 -3 19 18 37 46 17 28 30 53
28 56 -3 2 -19 -19 -37 -47z" />
    <path d="M3395 1210 c-9 -17 -14 -37 -12 -43 2 -7 12 6 21 27 20 48 14 60 -9
16z" />
    <path d="M3843 1141 c-3 -13 -16 -44 -29 -69 -26 -51 -26 -66 0 -27 22 33 48
106 41 114 -3 3 -9 -5 -12 -18z" />
    <path d="M3470 954 c0 -8 71 -36 77 -30 3 3 -12 12 -32 20 -41 18 -45 18 -45
10z" />
  </g>
  <g transform="translate(0.000000,366.000000) scale(0.100000,-0.100000)" fill="#c1c1c1" stroke="none">
    <path d="M210 2625 c-18 -19 -32 -37 -29 -39 2 -3 22 13 43 35 22 21 35 39 30
39 -6 0 -25 -16 -44 -35z" />
    <path d="M89 2444 c-12 -25 -19 -48 -16 -50 2 -2 14 18 25 46 26 63 18 66 -9
4z" />
    <path d="M2701 2320 c-24 -11 -42 -22 -40 -25 3 -2 27 7 54 20 60 29 48 33
-14 5z" />
    <path d="M4955 2321 c22 -10 51 -30 64 -45 31 -33 37 -33 44 2 4 21 3 24 -6
11 l-10 -16 -41 28 c-23 15 -52 30 -66 33 -14 3 -7 -2 15 -13z" />
    <path d="M1059 2288 c-23 -18 -44 -40 -46 -48 -3 -9 3 -6 15 7 10 12 36 33 57
47 21 14 33 26 27 26 -6 0 -30 -15 -53 -32z" />
    <path d="M3395 2268 c-36 -42 -78 -121 -90 -168 -3 -14 12 11 33 55 22 44 56
97 77 118 21 20 33 37 27 37 -6 0 -27 -19 -47 -42z" />
    <path d="M1786 2207 c-9 -24 -28 -59 -41 -77 -29 -40 -31 -55 -9 -64 l17 -6
-13 14 -12 15 21 30 c26 36 65 121 58 127 -2 2 -12 -15 -21 -39z" />
    <path d="M4892 2203 c-23 -5 -64 -53 -75 -88 l-6 -20 12 19 c27 42 60 76 72
76 8 0 17 5 20 10 3 6 5 9 3 9 -2 -1 -13 -4 -26 -6z" />
    <path d="M2889 2178 c12 -13 28 -32 37 -43 l15 -20 -12 25 c-15 32 -39 60 -52
60 -5 0 0 -10 12 -22z" />
    <path d="M3664 2169 c14 -17 26 -37 26 -44 0 -8 5 -17 11 -20 11 -8 -15 61
-32 82 -6 7 -16 13 -21 13 -5 0 2 -14 16 -31z" />
    <path d="M56 2170 c8 -32 54 -104 61 -96 4 3 -1 14 -10 24 -10 10 -26 36 -37
58 -13 24 -18 29 -14 14z" />
    <path d="M1081 2138 c-37 -51 -107 -178 -96 -178 2 0 16 24 31 53 35 69 103
159 115 152 5 -4 9 1 9 9 0 29 -19 17 -59 -36z" />
    <path d="M4053 2083 c-3 -10 -14 -40 -25 -66 -20 -52 -23 -72 -7 -44 14 24 49
127 43 127 -2 0 -7 -8 -11 -17z" />
    <path d="M150 2040 c14 -11 40 -25 59 -31 l33 -11 17 18 16 18 -17 -13 c-19
-14 -50 -8 -90 20 -35 25 -50 24 -18 -1z" />
    <path d="M6243 1950 c0 -36 2 -50 4 -32 2 17 2 47 0 65 -2 17 -4 3 -4 -33z" />
    <path d="M3114 1900 c0 -52 1 -74 3 -47 2 26 2 68 0 95 -2 26 -3 4 -3 -48z" />
    <path d="M1924 1909 c19 -23 40 -57 47 -76 6 -19 13 -32 16 -30 14 14 -66 147
-88 147 -6 0 5 -19 25 -41z" />
    <path d="M1740 1885 c35 -37 46 -44 34 -22 -13 23 -47 57 -58 57 -5 0 5 -16
24 -35z" />
    <path d="M3960 1864 c-17 -31 -29 -58 -27 -60 2 -2 18 23 36 56 41 76 34 79
-9 4z" />
    <path d="M4274 1896 c-3 -7 -4 -33 -2 -57 l3 -44 5 58 c5 58 4 68 -6 43z" />
    <path d="M936 1844 c-9 -26 -16 -52 -15 -58 0 -6 9 13 20 43 10 30 17 56 15
58 -2 2 -11 -17 -20 -43z" />
    <path d="M2069 1848 c-12 -24 -28 -51 -37 -61 -8 -9 -13 -19 -10 -22 6 -6 55
66 68 100 15 40 2 29 -21 -17z" />
    <path d="M1416 1770 c-28 -43 -35 -68 -10 -35 19 24 46 75 41 75 -3 0 -16 -18
-31 -40z" />
    <path d="M363 1680 c0 -36 2 -50 4 -32 2 17 2 47 0 65 -2 17 -4 3 -4 -33z" />
    <path d="M2895 1701 c-8 -16 -32 -44 -52 -61 l-38 -32 32 16 c31 15 63 53 76
89 10 27 -1 20 -18 -12z" />
    <path d="M1301 1710 c-1 -29 16 -43 43 -36 14 3 26 12 26 18 0 9 -3 9 -12 0
-19 -19 -38 -14 -48 11 -5 12 -9 15 -9 7z" />
    <path d="M2135 1690 c12 -41 34 -90 39 -90 6 0 -32 102 -41 110 -3 3 -2 -6 2
-20z" />
    <path d="M2517 1696 c-4 -9 -1 -13 6 -11 7 3 22 -17 35 -47 12 -28 24 -49 26
-47 6 6 -47 119 -55 119 -4 0 -9 -7 -12 -14z" />
    <path d="M5786 1660 c8 -32 42 -80 56 -80 7 0 1 11 -12 25 -14 14 -30 38 -37
53 l-13 27 6 -25z" />
    <path d="M2919 1599 c-31 -32 -55 -59 -53 -59 15 0 61 40 84 72 15 20 30 34
34 31 3 -3 6 -1 6 5 0 21 -14 12 -71 -49z" />
    <path d="M1697 1638 c2 -5 22 -8 43 -8 21 0 41 3 43 8 3 4 -17 7 -43 7 -26 0
-46 -3 -43 -7z" />
    <path d="M3231 1636 c-7 -8 -25 -17 -39 -19 l-27 -4 31 -2 c29 -1 64 22 52 34
-3 3 -11 -1 -17 -9z" />
    <path d="M5090 1635 c0 -35 109 -139 127 -121 3 3 -5 10 -18 15 -35 15 -64 42
-88 81 -12 19 -21 30 -21 25z" />
    <path d="M4320 1624 c0 -15 60 -84 73 -84 7 1 3 8 -8 18 -11 9 -30 30 -43 46
-12 16 -22 25 -22 20z" />
    <path d="M5403 1618 c-6 -7 -16 -24 -22 -38 l-12 -25 16 20 c9 11 21 19 26 18
5 -2 9 6 9 17 0 23 -4 25 -17 8z" />
    <path d="M6425 1594 c-10 -19 -34 -44 -52 -55 -19 -12 -32 -24 -29 -26 9 -9
64 37 86 73 12 19 20 37 18 39 -2 2 -12 -11 -23 -31z" />
    <path d="M3689 1603 c-8 -10 -27 -29 -43 -41 -16 -12 -24 -22 -19 -22 15 0 89
67 82 75 -4 3 -13 -2 -20 -12z" />
    <path d="M5611 1585 c0 -17 -8 -41 -17 -53 -9 -13 -11 -22 -4 -22 15 0 32 49
27 79 l-4 26 -2 -30z" />
    <path d="M3010 1582 c0 -15 59 -58 90 -66 l25 -7 -30 17 c-16 9 -42 28 -57 42
-16 14 -28 21 -28 14z" />
    <path d="M3274 1576 c-3 -9 -25 -27 -48 -41 -44 -27 -43 -34 2 -11 33 17 68
54 59 62 -4 4 -9 -1 -13 -10z" />
    <path d="M3690 1535 c-19 -19 -29 -35 -24 -35 13 0 69 58 63 65 -3 2 -21 -11
-39 -30z" />
    <path d="M4710 1556 c0 -7 45 -33 70 -40 15 -4 7 3 -19 18 -43 26 -51 29 -51
22z" />
    <path d="M3530 1385 c-35 -35 -62 -67 -59 -69 3 -3 36 26 74 64 38 39 65 70
59 70 -5 0 -38 -29 -74 -65z" />
    <path d="M3687 1402 c-49 -50 -48 -66 1 -19 21 21 41 34 45 31 4 -4 7 -2 7 4
0 25 -19 19 -53 -16z" />
    <path d="M3411 1238 c-32 -55 -38 -74 -21 -63 6 3 10 12 10 18 0 7 12 30 26
50 14 21 23 41 21 44 -3 3 -19 -19 -36 -49z" />
    <path d="M3822 1076 c-6 -13 -25 -40 -42 -60 -18 -20 -27 -36 -22 -36 18 0 90
105 79 116 -2 2 -9 -7 -15 -20z" />
    <path d="M3386 1050 c8 -31 51 -90 66 -90 7 0 -1 14 -17 30 -16 17 -35 43 -42
58 l-13 27 6 -25z" />
    <path d="M3680 943 c-25 -13 -34 -21 -20 -17 30 8 80 33 80 39 0 8 -13 3 -60
-22z" />
  </g>
  <g transform="translate(0.000000,366.000000) scale(0.100000,-0.100000)" fill="#757575" stroke="none">
    <path d="M2307 2353 c-3 -5 27 -7 66 -5 122 4 136 9 35 10 -53 1 -99 -1 -101
-5z" />
    <path d="M2962 2298 c-7 -7 -12 -19 -12 -27 0 -10 -8 -8 -27 10 l-28 24 24
-27 c29 -33 41 -35 41 -8 0 10 8 24 18 29 9 6 12 11 7 11 -6 0 -16 -5 -23 -12z" />
    <path d="M704 2175 c0 -71 1 -99 3 -62 2 37 2 96 0 130 -2 34 -3 4 -3 -68z" />
    <path d="M2114 2045 c0 -60 1 -84 3 -52 2 32 2 81 0 110 -2 29 -3 3 -3 -58z" />
    <path d="M5414 1955 c0 -88 2 -123 3 -77 2 46 2 118 0 160 -1 42 -3 5 -3 -83z" />
    <path d="M2294 1895 c0 -55 1 -76 3 -47 2 29 2 74 0 100 -2 26 -3 2 -3 -53z" />
    <path d="M3872 1858 c-1 -76 1 -138 6 -138 4 0 6 42 4 92 -5 168 -8 185 -10
46z" />
    <path d="M5213 1890 c0 -47 2 -66 4 -42 2 23 2 61 0 85 -2 23 -4 4 -4 -43z" />
    <path d="M1982 1768 c-2 -55 5 -59 32 -20 l20 27 -22 -18 -21 -19 -4 39 -4 38
-1 -47z" />
    <path d="M1999 1624 c-13 -15 -44 -40 -68 -55 -25 -16 -40 -29 -34 -29 14 0
82 51 112 84 14 14 22 26 19 26 -2 0 -15 -12 -29 -26z" />
  </g>
  <g transform="translate(0.000000,366.000000) scale(0.100000,-0.100000)" fill="#383838" stroke="none">
    <path d="M543 2605 c0 -38 2 -53 4 -32 2 20 2 52 0 70 -2 17 -4 1 -4 -38z" />
    <path d="M374 2225 c0 -93 2 -133 3 -88 2 45 2 122 0 170 -1 48 -3 12 -3 -82z" />
    <path d="M544 1920 c0 -63 1 -89 3 -57 2 31 2 83 0 115 -2 31 -3 5 -3 -58z" />
    <path d="M851 1953 c0 -29 3 -53 7 -53 4 0 6 17 4 38 -6 64 -10 69 -11 15z" />
    <path d="M704 1740 c0 -52 1 -74 3 -47 2 26 2 68 0 95 -2 26 -3 4 -3 -48z" />
    <path d="M3730 1367 l5 -72 3 64 c2 35 -1 68 -5 72 -4 4 -6 -24 -3 -64z" />
    <path d="M3530 1373 l-55 -58 58 55 c53 50 62 60 54 60 -1 0 -27 -26 -57 -57z" />
  </g>
  <g transform="translate(0.000000,366.000000) scale(0.100000,-0.100000)" fill="#9c9c9c" stroke="none">
    <path d="M2114 2235 c0 -55 1 -76 3 -47 2 29 2 74 0 100 -2 26 -3 2 -3 -53z" />
    <path d="M5413 2160 c0 -36 2 -50 4 -32 2 17 2 47 0 65 -2 17 -4 3 -4 -33z" />
    <path d="M1554 2065 l16 -25 -15 -30 c-9 -17 -13 -30 -11 -30 3 0 12 13 21 30
l15 30 -16 25 c-9 14 -19 25 -21 25 -3 0 2 -11 11 -25z" />
  </g>
  <g transform="translate(0.000000,366.000000) scale(0.100000,-0.100000)" fill="#525252" stroke="none">
    <path d="M374 2500 c0 -69 1 -97 3 -62 2 34 2 90 0 125 -2 34 -3 6 -3 -63z" />
    <path d="M3873 2060 c0 -47 2 -66 4 -42 2 23 2 61 0 85 -2 23 -4 4 -4 -43z" />
    <path d="M704 1940 c0 -69 1 -97 3 -62 2 34 2 90 0 125 -2 34 -3 6 -3 -63z" />
    <path d="M4613 1875 c0 -33 2 -45 4 -27 2 18 2 45 0 60 -2 15 -4 0 -4 -33z" />
  </g>
</svg>